<?xml version="1.0" encoding="UTF-8"?>
<svg version="1.1" xmlns="http://www.w3.org/2000/svg" width="674" height="605">
<path d="M0 0 C222.42 0 444.84 0 674 0 C674 199.65 674 399.3 674 605 C451.58 605 229.16 605 0 605 C0 405.35 0 205.7 0 0 Z " fill="#353535" transform="translate(0,0)"/>
<path d="M0 0 C222.42 0 444.84 0 674 0 C674 98.67 674 197.34 674 299 C451.58 299 229.16 299 0 299 C0 200.33 0 101.66 0 0 Z " fill="#72C7EC" transform="translate(0,0)"/>
<path d="M0 0 C222.42 0 444.84 0 674 0 C674 61.71 674 123.42 674 187 C660 180 660 180 655 177 C654.39872742 174.77900696 654.39872742 174.77900696 654.43237305 172.16137695 C654.4327507 171.1805867 654.43312836 170.19979645 654.43351746 169.18928528 C654.45932388 168.13295395 654.48513031 167.07662262 654.51171875 165.98828125 C654.51879349 164.90491989 654.52586823 163.82155853 654.53315735 162.70536804 C654.56117746 159.24038038 654.62393339 155.77700037 654.6875 152.3125 C654.71257286 149.9655181 654.73538779 147.61851092 654.75585938 145.27148438 C654.81102901 139.5137731 654.89473179 133.75700138 655 128 C654.37746338 127.82195831 653.75492676 127.64391663 653.11352539 127.46047974 C647.42614041 125.79959476 641.92448586 123.90963441 636.4375 121.6796875 C635.67953125 121.37555939 634.9215625 121.07143127 634.140625 120.75808716 C631.75875565 119.80112563 629.37940117 118.83807943 627 117.875 C625.3764554 117.22227476 623.7527586 116.56992798 622.12890625 115.91796875 C610.3955714 111.1977857 610.3955714 111.1977857 608 110 C607.67 123.2 607.34 136.4 607 150 C588.378125 140.6890625 588.378125 140.6890625 579.4375 135.8125 C577.91334473 134.98468018 577.91334473 134.98468018 576.35839844 134.14013672 C568.49683547 129.85455209 560.7069028 125.44924693 552.92749023 121.0168457 C544.76542489 116.3869022 536.50094114 111.95781484 528.21694946 107.55160522 C518.09161373 102.16250161 508.08163974 96.58980802 498.12109375 90.90234375 C497.32652665 90.45742391 496.53195955 90.01250408 495.71331465 89.55410182 C493.963188 88.55168398 492.2330297 87.5131508 490.53024137 86.43227303 C483.40848436 82.10652469 477.8281045 81.12839998 469.58120728 81.19772339 C468.37789399 81.18413005 467.1745807 81.17053671 465.93480337 81.15653145 C462.62467863 81.12531401 459.31652288 81.12058638 456.00639319 81.12769771 C452.42455301 81.12892985 448.84299684 81.09573197 445.2612915 81.06735229 C438.25390437 81.0176751 431.24682017 81.00103046 424.2392716 80.99767803 C418.53553264 80.99481814 412.83189283 80.98244534 407.12818527 80.96347427 C390.9195951 80.91066916 374.7112425 80.88295115 358.5025657 80.88745712 C357.63015163 80.88769685 356.75773757 80.88793659 355.85888672 80.88818359 C354.98539378 80.88842888 354.11190085 80.88867416 353.21193843 80.88892688 C339.07765149 80.891362 324.94432639 80.83403021 310.81031735 80.74935339 C296.26088993 80.6628836 281.71192997 80.62174829 267.16223943 80.62691605 C259.00844834 80.6288987 250.85566442 80.61282876 242.70210648 80.54784775 C235.75516691 80.49283406 228.8096902 80.48047053 221.86262555 80.52090429 C218.32685832 80.54031482 214.793886 80.54153431 211.25839615 80.48878479 C193.61738833 80.27408754 181.57126547 82.40349627 166.99506068 92.64587617 C164.39034048 94.41379919 161.6600206 95.79148939 158.8125 97.125 C153.25128813 99.82347834 147.87896604 102.80864375 142.48901367 105.82983398 C135.90304487 109.51554712 129.26894538 113.10753995 122.625 116.6875 C115.39957344 120.58429568 108.2168273 124.51417154 101.171875 128.73046875 C99.14668245 129.91425936 97.09787898 130.95212446 95 132 C82.06353186 138.85196039 69.26025077 145.94219151 56.53491211 153.17724609 C47.27533585 158.43317615 37.93238828 163.53083599 28.57202148 168.60449219 C22.75687265 171.75963132 16.94778606 174.92598628 11.15234375 178.1171875 C10.09144531 178.69726562 9.03054687 179.27734375 7.9375 179.875 C6.31134766 180.76832031 6.31134766 180.76832031 4.65234375 181.6796875 C2 183 2 183 0 183 C0 122.61 0 62.22 0 0 Z " fill="#27722A" transform="translate(0,299)"/>
<path d="M0 0 C1.19993432 -0.01656446 2.39986864 -0.03312892 3.63616461 -0.05019534 C6.93229891 -0.08849614 10.22675084 -0.09600068 13.52304566 -0.08962655 C17.09209534 -0.09025985 20.66073718 -0.13102796 24.22958374 -0.16610718 C31.21144324 -0.22788114 38.19290582 -0.25104358 45.17501587 -0.25841884 C50.86153392 -0.26450124 56.54791922 -0.28130718 62.23438835 -0.30550003 C78.40668639 -0.37285921 94.57866251 -0.40980812 110.75110156 -0.4093837 C112.05651004 -0.40935824 112.05651004 -0.40935824 113.38829041 -0.40933228 C114.25964398 -0.40930842 115.13099755 -0.40928457 116.02875578 -0.40925999 C130.11388659 -0.41076627 144.19754963 -0.48546293 158.28222889 -0.593522 C172.79332381 -0.70395552 187.30370254 -0.75730077 201.81522745 -0.75330126 C209.94261708 -0.7522331 218.06840417 -0.77371311 226.19540596 -0.85718918 C233.1233557 -0.92794429 240.04902733 -0.94485853 246.97720689 -0.89639454 C250.50014176 -0.87321094 254.01869091 -0.8721807 257.54115677 -0.93957138 C277.72092883 -1.25518273 290.76154847 3.22254463 307.38620365 13.99134135 C312.68363649 17.30976137 318.21707935 20.16509146 323.75132751 23.06771851 C331.85462278 27.40131489 339.89422277 31.82736455 347.87632751 36.38021851 C357.57803861 41.91194792 367.39279082 47.21329949 377.24790955 52.46420288 C387.38381062 57.8666226 397.45021123 63.38414662 407.50132751 68.94271851 C407.83132751 55.74271851 408.16132751 42.54271851 408.50132751 28.94271851 C412.33757751 30.40709351 416.17382751 31.87146851 420.12632751 33.38021851 C421.28342224 33.82035278 422.44051697 34.26048706 423.63267517 34.71395874 C434.67128618 38.94474501 445.54835106 43.46195541 456.50132751 47.94271851 C456.50132751 64.11271851 456.50132751 80.28271851 456.50132751 96.94271851 C458.97632751 97.93271851 458.97632751 97.93271851 461.50132751 98.94271851 C463.7649536 100.10403379 466.01446093 101.2931607 468.25132751 102.50521851 C469.40117126 103.12525757 470.55101501 103.74529663 471.73570251 104.38412476 C474.50132751 105.94271851 474.50132751 105.94271851 475.50132751 106.94271851 C475.50132751 116.18271851 475.50132751 125.42271851 475.50132751 134.94271851 C391.02132751 134.94271851 306.54132751 134.94271851 219.50132751 134.94271851 C219.50132751 138.57271851 219.50132751 142.20271851 219.50132751 145.94271851 C223.46132751 145.94271851 227.42132751 145.94271851 231.50132751 145.94271851 C231.50132751 149.90271851 231.50132751 153.86271851 231.50132751 157.94271851 C215.66132751 157.94271851 199.82132751 157.94271851 183.50132751 157.94271851 C183.50132751 163.88271851 183.50132751 169.82271851 183.50132751 175.94271851 C151.82132751 175.94271851 120.14132751 175.94271851 87.50132751 175.94271851 C87.50132751 170.00271851 87.50132751 164.06271851 87.50132751 157.94271851 C71.66132751 157.94271851 55.82132751 157.94271851 39.50132751 157.94271851 C39.50132751 153.98271851 39.50132751 150.02271851 39.50132751 145.94271851 C55.34132751 145.94271851 71.18132751 145.94271851 87.50132751 145.94271851 C87.50132751 143.96271851 87.50132751 141.98271851 87.50132751 139.94271851 C97.40132751 139.94271851 107.30132751 139.94271851 117.50132751 139.94271851 C117.50132751 125.42271851 117.50132751 110.90271851 117.50132751 95.94271851 C107.60132751 95.94271851 97.70132751 95.94271851 87.50132751 95.94271851 C87.50132751 82.74271851 87.50132751 69.54271851 87.50132751 55.94271851 C84.38372986 56.10570435 81.2661322 56.26869019 78.05406189 56.43661499 C60.55477263 57.22434442 43.0409367 57.07084156 25.52835274 57.04411244 C20.65976735 57.03777365 15.79118104 57.03726692 10.92259216 57.03608704 C1.74356687 57.03300427 -7.43544622 57.02483295 -16.61446619 57.01473755 C-27.08156921 57.00348041 -37.54867287 56.998042 -48.01578045 56.99304211 C-69.51008455 56.98264705 -91.00437774 56.96510808 -112.49867249 56.94271851 C-109.53235299 54.4707856 -106.98630342 52.68653397 -103.49867249 50.94271851 C-103.16867249 39.06271851 -102.83867249 27.18271851 -102.49867249 14.94271851 C-102.16867249 14.94271851 -101.83867249 14.94271851 -101.49867249 14.94271851 C-101.49867249 26.49271851 -101.49867249 38.04271851 -101.49867249 49.94271851 C-95.12554749 46.41584351 -95.12554749 46.41584351 -88.62367249 42.81771851 C-77.51054922 36.67463971 -66.36355085 30.6022761 -55.15345764 24.63754272 C-49.56263891 21.64942469 -44.0927963 18.53045298 -38.67616272 15.23764038 C-36.05606325 13.67950521 -33.37466655 12.31692437 -30.62367249 11.00521851 C-26.49927098 9.02302635 -22.72763599 6.80511246 -18.89702702 4.31023216 C-12.46848785 0.55307256 -7.34314071 -0.0679131 0 0 Z " fill="#363835" transform="translate(198.49867248535156,379.0572814941406)"/>
<path d="M0 0 C222.42 0 444.84 0 674 0 C674 61.71 674 123.42 674 187 C660 180 660 180 655 177 C654.39872742 174.77900696 654.39872742 174.77900696 654.43237305 172.16137695 C654.4327507 171.1805867 654.43312836 170.19979645 654.43351746 169.18928528 C654.45932388 168.13295395 654.48513031 167.07662262 654.51171875 165.98828125 C654.51879349 164.90491989 654.52586823 163.82155853 654.53315735 162.70536804 C654.56117746 159.24038038 654.62393339 155.77700037 654.6875 152.3125 C654.71257286 149.9655181 654.73538779 147.61851092 654.75585938 145.27148438 C654.81102901 139.5137731 654.89473179 133.75700138 655 128 C654.37746338 127.82195831 653.75492676 127.64391663 653.11352539 127.46047974 C647.42614041 125.79959476 641.92448586 123.90963441 636.4375 121.6796875 C635.67953125 121.37555939 634.9215625 121.07143127 634.140625 120.75808716 C631.75875565 119.80112563 629.37940117 118.83807943 627 117.875 C625.3764554 117.22227476 623.7527586 116.56992798 622.12890625 115.91796875 C610.3955714 111.1977857 610.3955714 111.1977857 608 110 C607.67 123.2 607.34 136.4 607 150 C588.3734375 140.68671875 588.3734375 140.68671875 579.4375 135.8125 C578.42574707 135.26279541 577.41399414 134.71309082 576.37158203 134.14672852 C568.38570067 129.7922004 560.4628202 125.33085072 552.55615234 120.83447266 C542.44166035 115.09106765 532.22384238 109.54626744 522 104 C522 94.43 522 84.86 522 75 C518.7 74.01 515.4 73.02 512 72 C509.4601683 71.05853275 506.93312335 70.08165863 504.421875 69.06640625 C503.7397847 68.79217331 503.0576944 68.51794037 502.35493469 68.23539734 C500.15161394 67.34852325 497.95080336 66.45560041 495.75 65.5625 C494.2103794 64.94129955 492.67058189 64.32053738 491.13061523 63.70019531 C487.97880855 62.43023388 484.82781634 61.15827925 481.67724609 59.88525391 C477.18183616 58.07084217 472.67997098 56.27295634 468.17578125 54.48046875 C467.48356476 54.20477554 466.79134827 53.92908234 466.07815552 53.64503479 C463.42747233 52.58936245 460.77678644 51.53370507 458.12512207 50.48049927 C456.32365908 49.7646523 454.5231351 49.04644364 452.72265625 48.328125 C451.20297241 47.72339355 451.20297241 47.72339355 449.65258789 47.10644531 C447.39383287 46.16427525 445.18900136 45.09450068 443 44 C443 49.28 443 54.56 443 60 C437.72 57.36 432.44 54.72 427 52 C427 47.05 427 42.1 427 37 C425.35 36.67 423.7 36.34 422 36 C422 40.29 422 44.58 422 49 C418.37 47.02 414.74 45.04 411 43 C411 39.04 411 35.08 411 31 C410.34 31 409.68 31 409 31 C408.67 34.3 408.34 37.6 408 41 C404.04 39.02 404.04 39.02 400 37 C400 33.37 400 29.74 400 26 C399.34 26 398.68 26 398 26 C398 28.97 398 31.94 398 35 C397.01 35 396.02 35 395 35 C395 34.34 395 33.68 395 33 C394.21625 32.855625 393.4325 32.71125 392.625 32.5625 C390 32 390 32 388 31 C388 28.03 388 25.06 388 22 C387.34 22 386.68 22 386 22 C386 24.31 386 26.62 386 29 C385.34 29 384.68 29 384 29 C384 26.36 384 23.72 384 21 C383.34 21 382.68 21 382 21 C382 23.31 382 25.62 382 28 C381.01 27.67 380.02 27.34 379 27 C379 24.36 379 21.72 379 19 C378.34 19 377.68 19 377 19 C377 21.31 377 23.62 377 26 C373.7 25.67 370.4 25.34 367 25 C367 22.69 367 20.38 367 18 C366.01 18 365.02 18 364 18 C364 19.98 364 21.96 364 24 C362.68 24 361.36 24 360 24 C360 21.69 360 19.38 360 17 C359.01 17 358.02 17 357 17 C357 18.98 357 20.96 357 23 C355.35 22.67 353.7 22.34 352 22 C352 20.02 352 18.04 352 16 C351.01 16 350.02 16 349 16 C349 17.98 349 19.96 349 22 C344.71 21.67 340.42 21.34 336 21 C336 19.02 336 17.04 336 15 C334.68 15 333.36 15 332 15 C332 16.65 332 18.3 332 20 C330.35 20 328.7 20 327 20 C327 18.02 327 16.04 327 14 C325.68 14 324.36 14 323 14 C323 15.98 323 17.96 323 20 C321.35 20 319.7 20 318 20 C318 18.02 318 16.04 318 14 C316.68 14 315.36 14 314 14 C314 15.65 314 17.3 314 19 C312.02 19 310.04 19 308 19 C308 17.02 308 15.04 308 13 C306.68 13 305.36 13 304 13 C304 14.65 304 16.3 304 18 C302.35 18 300.7 18 299 18 C299 16.35 299 14.7 299 13 C297.68 13 296.36 13 295 13 C295 14.32 295 15.64 295 17 C290.71 17 286.42 17 282 17 C282 15.35 282 13.7 282 12 C280.68 12 279.36 12 278 12 C278.14033111 13.97956441 278.2874123 15.95865141 278.4375 17.9375 C278.51871094 19.03964844 278.59992188 20.14179688 278.68359375 21.27734375 C278.70418084 23.91109903 278.70418084 23.91109903 280 25 C280.04080783 26.99958364 280.04254356 29.00045254 280 31 C278.02 31.66 276.04 32.32 274 33 C274.01740234 32.04287109 274.01740234 32.04287109 274.03515625 31.06640625 C274.04417969 30.24011719 274.05320312 29.41382813 274.0625 28.5625 C274.07990234 27.32693359 274.07990234 27.32693359 274.09765625 26.06640625 C274.23267348 24.00836062 274.23267348 24.00836062 273 23 C271.5445452 22.72517677 270.07807334 22.50824385 268.609375 22.31640625 C267.68133057 22.19434814 266.75328613 22.07229004 265.79711914 21.9465332 C264.28879517 21.75643677 264.28879517 21.75643677 262.75 21.5625 C261.7283374 21.43125732 260.7066748 21.30001465 259.65405273 21.16479492 C249.45684751 19.8822016 239.2373055 18.89800925 229 18 C229.33 15.36 229.66 12.72 230 10 C229.01 10 228.02 10 227 10 C226.67 12.31 226.34 14.62 226 17 C215.44191344 17.18451025 215.44191344 17.18451025 211 16 C211 15.01 211 14.02 211 13 C209.35 12.67 207.7 12.34 206 12 C206 12.99 206 13.98 206 15 C201.71 15 197.42 15 193 15 C193 14.01 193 13.02 193 12 C191.68 12 190.36 12 189 12 C189 12.66 189 13.32 189 14 C187.02 14 185.04 14 183 14 C183 13.34 183 12.68 183 12 C182.34 12.33 181.68 12.66 181 13 C173.03385617 13.34635408 165.17009071 12.99981757 157.24118042 12.23329163 C153.90177122 11.99292975 150.62158825 11.96660093 147.27392578 11.99389648 C138.38372097 12.03388539 129.50407782 11.82013973 120.6171875 11.59765625 C118.86964193 11.55509411 117.12209344 11.51265201 115.37454224 11.47032166 C111.7254138 11.38152628 108.07631957 11.29146451 104.42724609 11.20043945 C99.84355448 11.08617435 95.25979823 10.97480536 90.67601395 10.86432838 C72.75621876 10.43139679 54.83894182 9.97982335 36.92648315 9.30152893 C30.00271345 9.04360178 23.11194817 8.96596515 16.18359375 9.03125 C10.768464 8.97809535 5.38896854 8.50890765 0 8 C0 5.36 0 2.72 0 0 Z " fill="#27722B" transform="translate(0,299)"/>
<path d="M0 0 C3.87668453 1.47477515 7.7509797 2.95574195 11.625 4.4375 C12.68074219 4.83904297 13.73648437 5.24058594 14.82421875 5.65429688 C25.96587859 9.92200869 36.94616008 14.47797458 48 19 C48 35.17 48 51.34 48 68 C49.65 68.66 51.3 69.32 53 70 C55.26362609 71.16131528 57.51313341 72.3504422 59.75 73.5625 C60.89984375 74.18253906 62.0496875 74.80257812 63.234375 75.44140625 C66 77 66 77 67 78 C67 87.24 67 96.48 67 106 C-17.48 106 -101.96 106 -189 106 C-189 109.63 -189 113.26 -189 117 C-185.04 117 -181.08 117 -177 117 C-177 120.96 -177 124.92 -177 129 C-192.84 129 -208.68 129 -225 129 C-225 134.94 -225 140.88 -225 147 C-256.68 147 -288.36 147 -321 147 C-321 141.06 -321 135.12 -321 129 C-336.84 129 -352.68 129 -369 129 C-369 125.04 -369 121.08 -369 117 C-353.16 117 -337.32 117 -321 117 C-321 115.02 -321 113.04 -321 111 C-311.1 111 -301.2 111 -291 111 C-291 82.62 -291 54.24 -291 25 C-304.86 25 -318.72 25 -333 25 C-333 21.7 -333 18.4 -333 15 C-293.4 15 -253.8 15 -213 15 C-213 18.3 -213 21.6 -213 25 C-226.86 25 -240.72 25 -255 25 C-255 30.61 -255 36.22 -255 42 C-245.1 42 -235.2 42 -225 42 C-225 50.91 -225 59.82 -225 69 C-217.08 69 -209.16 69 -201 69 C-201 68.34 -201 67.68 -201 67 C-79.725 66.505 -79.725 66.505 44 66 C30.23298357 58.21864289 16.47708422 50.46512629 2.58447266 42.91699219 C1 42 1 42 0 41 C-0.08871273 37.97022196 -0.1151935 34.96332978 -0.09765625 31.93359375 C-0.09553383 30.57065941 -0.09553383 30.57065941 -0.09336853 29.18019104 C-0.08775193 26.26592779 -0.07519665 23.35174019 -0.0625 20.4375 C-0.05748714 18.46679798 -0.05292386 16.49609476 -0.04882812 14.52539062 C-0.03777711 9.68356441 -0.02050138 4.84179505 0 0 Z " fill="#323432" transform="translate(607,408)"/>
<path d="M0 0 C39.6 0 79.2 0 120 0 C120 3.3 120 6.6 120 10 C106.14 10 92.28 10 78 10 C78 38.38 78 66.76 78 96 C87.9 96 97.8 96 108 96 C108 97.98 108 99.96 108 102 C123.84 102 139.68 102 156 102 C156 105.96 156 109.92 156 114 C140.16 114 124.32 114 108 114 C108 119.94 108 125.88 108 132 C76.32 132 44.64 132 12 132 C12 126.06 12 120.12 12 114 C-3.84 114 -19.68 114 -36 114 C-36 110.04 -36 106.08 -36 102 C-20.16 102 -4.32 102 12 102 C12 100.02 12 98.04 12 96 C21.9 96 31.8 96 42 96 C42 67.62 42 39.24 42 10 C28.14 10 14.28 10 0 10 C0 6.7 0 3.4 0 0 Z " fill="#4254F5" transform="translate(274,423)"/>
<path d="M0 0 C0 4.62 0 9.24 0 14 C-7.92 18.455 -7.92 18.455 -16 23 C55.94 23 127.88 23 202 23 C202 17.39 202 11.78 202 6 C209.26091776 8.32690006 216.3118086 11.04639442 223.3828125 13.89453125 C224.55528534 14.36436935 225.72775818 14.83420746 226.9357605 15.31828308 C230.03778334 16.56186756 233.13889315 17.80767575 236.23956299 19.05462646 C239.34907614 20.30453177 242.45975244 21.55153042 245.5703125 22.79882812 C250.29772093 24.69483299 255.02461289 26.59211496 259.75097656 28.49072266 C266.83105028 31.33451625 273.91486933 34.16883177 281 37 C281 46.24 281 55.48 281 65 C276.68037382 63.56012461 273.5931486 62.37150012 269.76953125 60.171875 C268.80080078 59.61886719 267.83207031 59.06585938 266.83398438 58.49609375 C265.83689453 57.91988281 264.83980469 57.34367187 263.8125 56.75 C261.8403229 55.61895578 259.86766779 54.48874463 257.89453125 53.359375 C257.02675049 52.85889648 256.15896973 52.35841797 255.26489258 51.84277344 C254.18747803 51.2346582 253.11006348 50.62654297 252 50 C251.24479864 49.51679641 250.48959727 49.03359282 249.71151102 48.53574669 C242.5082341 44.16699652 236.92041441 43.12762403 228.58120728 43.19772339 C227.37789399 43.18413005 226.1745807 43.17053671 224.93480337 43.15653145 C221.62467863 43.12531401 218.31652288 43.12058638 215.00639319 43.12769771 C211.42455301 43.12892985 207.84299684 43.09573197 204.2612915 43.06735229 C197.25390437 43.0176751 190.24682017 43.00103046 183.2392716 42.99767803 C177.53553264 42.99481814 171.83189283 42.98244534 166.12818527 42.96347427 C149.9195951 42.91066916 133.7112425 42.88295115 117.5025657 42.88745712 C116.63015163 42.88769685 115.75773757 42.88793659 114.85888672 42.88818359 C113.98539378 42.88842888 113.11190085 42.88867416 112.21193843 42.88892688 C98.07765149 42.891362 83.94432639 42.83403021 69.81031735 42.74935339 C55.26088993 42.6628836 40.71192997 42.62174829 26.16223943 42.62691605 C18.00844834 42.6288987 9.85566442 42.61282876 1.70210648 42.54784775 C-5.24483309 42.49283406 -12.1903098 42.48047053 -19.13737445 42.52090429 C-22.67314168 42.54031482 -26.206114 42.54153431 -29.74160385 42.48878479 C-47.36079509 42.27435306 -59.37761782 44.39177129 -73.93729711 54.60940766 C-76.83944773 56.56592231 -79.84266648 58.05648532 -83 59.5625 C-85.66133223 60.83376138 -88.17292076 62.10631611 -90.6875 63.65234375 C-93 65 -93 65 -95 65 C-95 55.76 -95 46.52 -95 37 C-81.50409038 31.37670432 -81.50409038 31.37670432 -76.49609375 29.37890625 C-75.36059082 28.92531738 -74.22508789 28.47172852 -73.05517578 28.00439453 C-71.86134277 27.52856934 -70.66750977 27.05274414 -69.4375 26.5625 C-67.47968718 25.78134265 -65.52197155 24.99994209 -63.56427002 24.21850586 C-62.19187561 23.67071153 -60.81943852 23.12302413 -59.44696045 22.57543945 C-54.23661924 20.49594819 -49.02995816 18.40738663 -43.82421875 16.31640625 C-41.5097539 15.3876182 -39.19521601 14.45901242 -36.88064575 13.53048706 C-35.40455068 12.93793613 -33.92869065 12.3447993 -32.45309448 11.75100708 C-24.68994911 8.62756147 -16.9113662 5.55041483 -9.0859375 2.5859375 C-8.40367096 2.32527496 -7.72140442 2.06461243 -7.01846313 1.79605103 C-2.23636348 0 -2.23636348 0 0 0 Z " fill="#383837" transform="translate(241,337)"/>
<path d="M0 0 C1.17634594 -0.00384491 1.17634594 -0.00384491 2.37645644 -0.0077675 C5.00066731 -0.01270353 7.62430111 0.00378434 10.24845886 0.02018738 C12.1309457 0.02103369 14.01343353 0.02055843 15.8959198 0.01885986 C21.00505161 0.01799865 26.11397239 0.03564496 31.22305512 0.05658174 C36.56286695 0.07532741 41.90268354 0.07709732 47.24252319 0.08065796 C57.35366203 0.08998461 67.46470363 0.11460684 77.57579964 0.14470643 C89.08717019 0.17823109 100.59854536 0.19473159 112.10995257 0.20979273 C135.78923372 0.24115581 159.46842171 0.29453228 183.14762878 0.36076355 C183.14762878 10.92076355 183.14762878 21.48076355 183.14762878 32.36076355 C101.63762878 32.36076355 20.12762878 32.36076355 -63.85237122 32.36076355 C-60.84054513 29.34893747 -58.37597974 27.88451872 -54.62971497 25.9193573 C-54.0161615 25.59521851 -53.40260803 25.27107971 -52.77046204 24.93711853 C-51.4582504 24.24447743 -50.14476274 23.55424931 -48.8301239 22.8662262 C-45.41502371 21.07860476 -42.00931356 19.27324409 -38.60237122 17.47013855 C-37.9310466 17.11546005 -37.25972198 16.76078156 -36.5680542 16.39535522 C-31.10794611 13.50716375 -25.68439605 10.55736333 -20.28987122 7.54826355 C-19.59047424 7.15888611 -18.89107727 6.76950867 -18.17048645 6.36833191 C-15.57944954 4.91832592 -13.04490558 3.49930007 -10.63245106 1.76343822 C-7.05598223 -0.04105033 -3.91265513 -0.04692631 0 0 Z " fill="#373736" transform="translate(78.85237121582031,442.6392364501953)"/>
<path d="M0 0 C1.32 0 2.64 0 4 0 C4 1.65 4 3.3 4 5 C8.29 5 12.58 5 17 5 C17 3.68 17 2.36 17 1 C18.32 1 19.64 1 21 1 C21 2.65 21 4.3 21 6 C22.65 6 24.3 6 26 6 C26 4.35 26 2.7 26 1 C27.32 1 28.64 1 30 1 C30 2.98 30 4.96 30 7 C31.98 7 33.96 7 36 7 C36 5.35 36 3.7 36 2 C37.32 2 38.64 2 40 2 C40 3.98 40 5.96 40 8 C41.65 8 43.3 8 45 8 C45 6.02 45 4.04 45 2 C46.32 2 47.64 2 49 2 C49 3.98 49 5.96 49 8 C50.65 8 52.3 8 54 8 C54 6.35 54 4.7 54 3 C55.32 3 56.64 3 58 3 C58 4.98 58 6.96 58 9 C59.216875 8.979375 60.43375 8.95875 61.6875 8.9375 C64.91977322 8.93175884 67.84934741 9.21233685 71 10 C71 8.02 71 6.04 71 4 C71.99 4 72.98 4 74 4 C74.33 5.98 74.66 7.96 75 10 C76.98 10.495 76.98 10.495 79 11 C79 9.02 79 7.04 79 5 C79.99 5 80.98 5 82 5 C82 7.31 82 9.62 82 12 C83.32 12 84.64 12 86 12 C86 10.02 86 8.04 86 6 C86.99 6 87.98 6 89 6 C89 8.31 89 10.62 89 13 C92.3 13.33 95.6 13.66 99 14 C99 11.69 99 9.38 99 7 C99.66 7 100.32 7 101 7 C101 9.64 101 12.28 101 15 C101.66 15 102.32 15 103 15 C103.33 13.02 103.66 11.04 104 9 C104.66 9 105.32 9 106 9 C106 11.64 106 14.28 106 17 C106.66 17 107.32 17 108 17 C108 14.69 108 12.38 108 10 C108.66 10 109.32 10 110 10 C110 12.97 110 15.94 110 19 C112.31 19.66 114.62 20.32 117 21 C117 21.66 117 22.32 117 23 C117.99 23 118.98 23 120 23 C120 20.03 120 17.06 120 14 C120.66 14 121.32 14 122 14 C122.00257813 14.75925781 122.00515625 15.51851563 122.0078125 16.30078125 C122.12492102 19.31047018 122.31171171 22.06503485 123 25 C125.87129568 27.3155324 125.87129568 27.3155324 129 28 C129.33 24.7 129.66 21.4 130 18 C130.99 18.33 131.98 18.66 133 19 C132.96777344 19.80824219 132.93554688 20.61648438 132.90234375 21.44921875 C132.93915509 24.83995248 133.10504947 27.72277638 134 31 C136.86655347 33.64480122 139.29890928 34.54041493 143 36 C143.33 32.04 143.66 28.08 144 24 C145.65 24.33 147.3 24.66 149 25 C149 29.95 149 34.9 149 40 C150.65 40.66 152.3 41.32 154 42 C156.28389961 43.18345091 158.55428475 44.39324623 160.8125 45.625 C161.40998047 45.94984375 162.00746094 46.2746875 162.62304688 46.609375 C164.08337135 47.40379151 165.54187491 48.20155376 167 49 C167 49.33 167 49.66 167 50 C94.07 50 21.14 50 -54 50 C-50.64801615 46.64801615 -48.42586334 44.91191628 -44.375 42.75 C-42.93253906 41.96882813 -42.93253906 41.96882813 -41.4609375 41.171875 C-39 40 -39 40 -37 40 C-37.02320313 39.01257813 -37.04640625 38.02515625 -37.0703125 37.0078125 C-37.08835938 35.72648437 -37.10640625 34.44515625 -37.125 33.125 C-37.14820313 31.84882813 -37.17140625 30.57265625 -37.1953125 29.2578125 C-37 26 -37 26 -35 24 C-34.01 24 -33.02 24 -32 24 C-31.67 27.96 -31.34 31.92 -31 36 C-26.08273138 34.09260808 -26.08273138 34.09260808 -22 31 C-20.90043551 26.97349957 -20.83433227 23.15494656 -21 19 C-20.01 18.67 -19.02 18.34 -18 18 C-17.505 22.95 -17.505 22.95 -17 28 C-13.88679844 27.23886732 -13.88679844 27.23886732 -11 25 C-10.38897454 22.34788947 -10.25040563 19.89832353 -10.203125 17.1796875 C-10.13609375 16.46039063 -10.0690625 15.74109375 -10 15 C-9.34 14.67 -8.68 14.34 -8 14 C-8 16.97 -8 19.94 -8 23 C-7.34 22.67 -6.68 22.34 -6 22 C-5.53348793 19.87423218 -5.53348793 19.87423218 -5.375 17.4375 C-5.30023438 16.61121094 -5.22546875 15.78492188 -5.1484375 14.93359375 C-5.09945312 14.29550781 -5.05046875 13.65742188 -5 13 C-4.67 13 -4.34 13 -4 13 C-4 15.64 -4 18.28 -4 21 C-2.02 20.34 -0.04 19.68 2 19 C1.505 17.63875 1.505 17.63875 1 16.25 C-0.55521854 10.93816204 -0.16196433 5.47979305 0 0 Z " fill="#374631" transform="translate(278,311)"/>
<path d="M0 0 C3.87668453 1.47477515 7.7509797 2.95574195 11.625 4.4375 C12.68074219 4.83904297 13.73648437 5.24058594 14.82421875 5.65429688 C25.96587859 9.92200869 36.94616008 14.47797458 48 19 C48 35.17 48 51.34 48 68 C49.65 68.66 51.3 69.32 53 70 C54.93150512 70.9710299 56.84820328 71.97200177 58.75 73 C60.19632813 73.7734375 60.19632813 73.7734375 61.671875 74.5625 C64 76 64 76 65 78 C-40.6 78 -146.2 78 -255 78 C-255 66.12 -255 54.24 -255 42 C-245.1 42 -235.2 42 -225 42 C-225 50.91 -225 59.82 -225 69 C-217.08 69 -209.16 69 -201 69 C-201 68.34 -201 67.68 -201 67 C-79.725 66.505 -79.725 66.505 44 66 C30.23298357 58.21864289 16.47708422 50.46512629 2.58447266 42.91699219 C1 42 1 42 0 41 C-0.08871273 37.97022196 -0.1151935 34.96332978 -0.09765625 31.93359375 C-0.09553383 30.57065941 -0.09553383 30.57065941 -0.09336853 29.18019104 C-0.08775193 26.26592779 -0.07519665 23.35174019 -0.0625 20.4375 C-0.05748714 18.46679798 -0.05292386 16.49609476 -0.04882812 14.52539062 C-0.03777711 9.68356441 -0.02050138 4.84179505 0 0 Z " fill="#333534" transform="translate(607,408)"/>
<path d="M0 0 C2.50111583 1.47127134 5.06616769 2.81951031 7.62779045 4.18180656 C9.31709831 5.116045 11.00466907 6.053433 12.69029045 6.99430656 C14.01286858 7.7271386 14.01286858 7.7271386 15.36216545 8.47477531 C17.47319405 9.64501943 19.58255797 10.8181398 21.69029045 11.99430656 C21.69029045 12.65430656 21.69029045 13.31430656 21.69029045 13.99430656 C-44.30970955 13.99430656 -110.30970955 13.99430656 -178.30970955 13.99430656 C-178.30970955 22.90430656 -178.30970955 31.81430656 -178.30970955 40.99430656 C-186.22970955 40.99430656 -194.14970955 40.99430656 -202.30970955 40.99430656 C-202.30970955 32.08430656 -202.30970955 23.17430656 -202.30970955 13.99430656 C-212.20970955 13.99430656 -222.10970955 13.99430656 -232.30970955 13.99430656 C-232.30970955 8.38430656 -232.30970955 2.77430656 -232.30970955 -3.00569344 C-218.44970955 -3.00569344 -204.58970955 -3.00569344 -190.30970955 -3.00569344 C-190.30970955 -3.99569344 -190.30970955 -4.98569344 -190.30970955 -6.00569344 C-167.6389404 -6.32399279 -144.96803551 -6.59523428 -122.29605293 -6.81134224 C-111.76765727 -6.91278069 -101.23984082 -7.02927989 -90.7120533 -7.18196297 C-81.52984803 -7.31509223 -72.34783569 -7.4192218 -63.16492558 -7.48936844 C-58.30800509 -7.52746028 -53.45218666 -7.57949809 -48.59587288 -7.66633797 C-44.012437 -7.74783825 -39.43020964 -7.79016851 -34.8460865 -7.80415344 C-33.17558713 -7.81584707 -31.50511042 -7.84111176 -29.83506966 -7.88196182 C-18.19185347 -8.15579206 -10.04651254 -5.93448689 0 0 Z " fill="#333433" transform="translate(584.3097095489502,436.00569343566895)"/>
<path d="M0 0 C1.40670444 -0.01526346 1.40670444 -0.01526346 2.84182715 -0.03083527 C5.99877314 -0.06234057 9.15562735 -0.07934968 12.31268311 -0.09622192 C14.57135095 -0.11529619 16.83001292 -0.13507839 19.08866882 -0.15551758 C26.5262251 -0.21838415 33.96382651 -0.25886303 41.40155029 -0.29592896 C42.66882556 -0.3025236 43.93610083 -0.30911824 45.24177837 -0.31591272 C57.20828713 -0.37753052 69.17480212 -0.43124374 81.14142227 -0.46475029 C83.91416712 -0.47264827 86.68691163 -0.48065432 89.45965576 -0.48880005 C90.14873936 -0.49081677 90.83782296 -0.49283349 91.54778787 -0.49491133 C102.66463083 -0.52879048 113.78057266 -0.61084629 124.89697757 -0.71284603 C136.33861791 -0.81695449 147.77957131 -0.87374738 159.22172236 -0.88914406 C165.63439306 -0.89900452 172.0454681 -0.92864771 178.45767975 -1.00863266 C184.50925314 -1.08311354 190.55834511 -1.0989476 196.61029243 -1.07262039 C198.81316437 -1.07272711 201.01615664 -1.09283156 203.21860313 -1.13612366 C219.46706674 -1.43801954 233.85367753 2.06667065 246.94842529 12.32125854 C247.60842529 13.64125854 248.26842529 14.96125854 248.94842529 16.32125854 C154.89842529 16.32125854 60.84842529 16.32125854 -36.05157471 16.32125854 C-32.66160399 13.60928197 -30.21649584 11.7143314 -26.51251221 9.81344604 C-25.68493408 9.38418823 -24.85735596 8.95493042 -24.00469971 8.51266479 C-22.72852783 7.8610437 -22.72852783 7.8610437 -21.42657471 7.19625854 C-19.72531635 6.32008495 -18.02476496 5.44253692 -16.32501221 4.56344604 C-15.57655029 4.18043335 -14.82808838 3.79742065 -14.0569458 3.40280151 C-8.95913203 0.65343275 -5.80684224 0.01553308 0 0 Z " fill="#333C33" transform="translate(226.05157470703125,362.6787414550781)"/>
<path d="M0 0 C0 11.88 0 23.76 0 36 C-7.99590632 40.56908933 -15.96711948 45.12117127 -24.0625 49.5 C-33.01693596 54.3653655 -41.95158989 59.26554817 -50.875 64.1875 C-51.49614685 64.52982666 -52.1172937 64.87215332 -52.75726318 65.22485352 C-58.63095359 68.46251155 -64.50154446 71.70446689 -70.33203125 75.01953125 C-71.4624585 75.66208862 -71.4624585 75.66208862 -72.61572266 76.31762695 C-73.94978156 77.07898063 -75.28167369 77.8441501 -76.61083984 78.61401367 C-80.78349174 81 -80.78349174 81 -83 81 C-83 65.16 -83 49.32 -83 33 C-78 31 -73 29 -68 27 C-67.17242187 26.66871094 -66.34484375 26.33742188 -65.4921875 25.99609375 C-63.85228174 25.34064552 -62.21167384 24.68695087 -60.5703125 24.03515625 C-56.23823417 22.31201327 -51.92358425 20.55516389 -47.625 18.75 C-39.69225485 15.43285465 -31.69969515 12.26631349 -23.71240234 9.08349609 C-20.90662311 7.96269967 -18.10342129 6.83565291 -15.30078125 5.70703125 C-13.92212891 5.15269409 -13.92212891 5.15269409 -12.515625 4.5871582 C-10.73776623 3.87212884 -8.96040729 3.1558552 -7.18359375 2.43823242 C-6.38695313 2.11830322 -5.5903125 1.79837402 -4.76953125 1.46875 C-4.06417236 1.18451172 -3.35881348 0.90027344 -2.63208008 0.60742188 C-1 0 -1 0 0 0 Z " fill="#FB0301" transform="translate(96,394)"/>
<path d="M0 0 C222.42 0 444.84 0 674 0 C674 1.65 674 3.3 674 5 C451.58 5 229.16 5 0 5 C0 3.35 0 1.7 0 0 Z " fill="#212229" transform="translate(0,600)"/>
<path d="M0 0 C7.99298138 2.54836077 15.76859297 5.59518715 23.5625 8.6875 C24.98441458 9.2497802 26.406372 9.81195208 27.82836914 10.37402344 C39.87492979 15.14035671 51.90714559 19.94293875 63.9375 24.75 C64.82801056 25.10565033 65.71852112 25.46130066 66.63601685 25.82772827 C69.16270429 26.83725145 71.68887188 27.84806288 74.21484375 28.859375 C74.97477631 29.16295425 75.73470886 29.46653351 76.51766968 29.77931213 C81.76921941 31.88460971 81.76921941 31.88460971 84 33 C84 46.53 84 60.06 84 74 C65.371875 64.6859375 65.371875 64.6859375 56.4375 59.8125 C55.42719727 59.26352051 54.41689453 58.71454102 53.37597656 58.14892578 C45.34211904 53.76784204 37.36784666 49.28519992 29.41333008 44.76196289 C21.99251817 40.54478707 14.52605479 36.41618118 7.02832031 32.33740234 C6.24811523 31.91152832 5.46791016 31.4856543 4.6640625 31.046875 C3.97779785 30.67401367 3.2915332 30.30115234 2.58447266 29.91699219 C1 29 1 29 0 28 C-0.08767112 25.92737924 -0.10695873 23.85179706 -0.09765625 21.77734375 C-0.09443359 20.51728516 -0.09121094 19.25722656 -0.08789062 17.95898438 C-0.07953403 16.61848891 -0.07106907 15.27799412 -0.0625 13.9375 C-0.0574866 12.59310058 -0.05292342 11.2486994 -0.04882812 9.90429688 C-0.03699488 6.60282059 -0.02050971 3.30143197 0 0 Z " fill="#F60604" transform="translate(523,375)"/>
<path d="M0 0 C0 0.66 0 1.32 0 2 C-57.42 2 -114.84 2 -174 2 C-174 15.53 -174 29.06 -174 43 C-181.92 43 -189.84 43 -198 43 C-198 34.09 -198 25.18 -198 16 C-207.9 16 -217.8 16 -228 16 C-228 10.39 -228 4.78 -228 -1 C-214.14 -1 -200.28 -1 -186 -1 C-186 -1.99 -186 -2.98 -186 -4 C-163.22539708 -4.2476408 -140.45067945 -4.46615915 -117.67547035 -4.65021229 C-107.10003315 -4.73635112 -96.52484058 -4.83194175 -85.94970703 -4.94995117 C-76.73013988 -5.05280947 -67.51060932 -5.13776277 -58.29068506 -5.20140952 C-53.4108027 -5.23571641 -48.53136617 -5.27885614 -43.65178299 -5.34345436 C-39.05374421 -5.40404206 -34.45612538 -5.44058624 -29.85773087 -5.45913696 C-28.17511498 -5.47008225 -26.49252824 -5.48961825 -24.81012726 -5.51865196 C-15.54790121 -5.67318456 -7.94952423 -5.42025407 0 0 Z " fill="#323532" transform="translate(580,434)"/>
<path d="M0 0 C0 13.86 0 27.72 0 42 C-7.92 42 -15.84 42 -24 42 C-24 30.78 -24 19.56 -24 8 C-86.37 8 -148.74 8 -213 8 C-206.58207898 3.18655924 -202.67073583 0.50446712 -194.56214905 0.48101807 C-193.48826948 0.46976619 -193.48826948 0.46976619 -192.39269537 0.458287 C-190.01027583 0.43810166 -187.62881655 0.4460948 -185.24633789 0.45410156 C-183.53056402 0.44535967 -181.8147983 0.43487174 -180.0990448 0.42277527 C-175.44503884 0.39491814 -170.7912988 0.39151117 -166.13722157 0.39249516 C-161.24233599 0.38935431 -156.34756783 0.36369624 -151.45274353 0.34051514 C-142.16008717 0.29992765 -132.86750076 0.27961817 -123.57476944 0.26654124 C-113.09321681 0.25080021 -102.61178843 0.21232797 -92.13030636 0.17194796 C-61.42029326 0.054729 -30.71024646 -0.01589269 0 0 Z " fill="#323433" transform="translate(286,435)"/>
<path d="M0 0 C3.87668453 1.47477515 7.7509797 2.95574195 11.625 4.4375 C12.68074219 4.83904297 13.73648438 5.24058594 14.82421875 5.65429688 C25.96587859 9.92200869 36.94616008 14.47797458 48 19 C48 34.84 48 50.68 48 67 C43.92080167 65.36832067 40.23545373 63.61067635 36.37109375 61.55078125 C35.74074722 61.21507614 35.1104007 60.87937103 34.46095276 60.53349304 C33.12815875 59.8228306 31.7960537 59.11087474 30.46459961 58.39770508 C28.46986838 57.32982837 26.47243942 56.26714366 24.47460938 55.20507812 C2.47398484 43.47398484 2.47398484 43.47398484 0 41 C-0.08871273 37.97022196 -0.1151935 34.96332978 -0.09765625 31.93359375 C-0.0962413 31.02497086 -0.09482635 30.11634796 -0.09336853 29.18019104 C-0.08775193 26.26592779 -0.07519665 23.35174019 -0.0625 20.4375 C-0.05748714 18.46679798 -0.05292386 16.49609476 -0.04882812 14.52539062 C-0.03777711 9.68356441 -0.02050138 4.84179505 0 0 Z " fill="#FA0302" transform="translate(607,408)"/>
<path d="M0 0 C1.84757835 -0.01306258 3.69514048 -0.02861909 5.54267883 -0.04646301 C10.5348631 -0.08644868 15.52636346 -0.08838964 20.51867652 -0.08077312 C24.70058279 -0.07755018 28.88235327 -0.09224968 33.06423026 -0.10658938 C42.94006011 -0.13981355 52.81554763 -0.14122355 62.69140625 -0.12304688 C72.84433428 -0.10494595 82.99601312 -0.14182481 93.14872807 -0.20575708 C101.89570461 -0.25879082 110.64228581 -0.27657983 119.38941699 -0.26684386 C124.60030128 -0.26143221 129.81029515 -0.26903785 135.02103233 -0.31098747 C139.92765693 -0.34901401 144.8323521 -0.34262606 149.73895073 -0.30375481 C151.52702264 -0.29671993 153.31523446 -0.30463572 155.1031456 -0.32962418 C168.20409214 -0.49934686 176.73064578 2.43569022 187.5637207 9.82397461 C187.5637207 10.15397461 187.5637207 10.48397461 187.5637207 10.82397461 C114.6337207 10.82397461 41.7037207 10.82397461 -33.4362793 10.82397461 C-23.17741722 0.56511253 -13.74033094 -0.06447074 0 0 Z " fill="#343B34" transform="translate(257.436279296875,350.176025390625)"/>
<path d="M0 0 C0 4.62 0 9.24 0 14 C-7.92 18.455 -7.92 18.455 -16 23 C55.94 23 127.88 23 202 23 C202 17.39 202 11.78 202 6 C209.46931741 8.38954858 216.72542242 11.19999604 224 14.125 C225.14339844 14.58003906 226.28679687 15.03507812 227.46484375 15.50390625 C229.09099609 16.15552734 229.09099609 16.15552734 230.75 16.8203125 C231.73484375 17.21492676 232.7196875 17.60954102 233.734375 18.01611328 C236 19 236 19 237 20 C237.08685603 21.56172745 237.10702219 23.12729344 237.09765625 24.69140625 C237.09443359 25.63564453 237.09121094 26.57988281 237.08789062 27.55273438 C237.07951172 28.54595703 237.07113281 29.53917969 237.0625 30.5625 C237.05798828 31.55958984 237.05347656 32.55667969 237.04882812 33.58398438 C237.03700007 36.05604849 237.02051849 38.52799518 237 41 C233.53083496 39.69964836 230.46666655 38.16884427 227.31026268 36.23539162 C213.00060655 27.83890757 201.83262407 25.23708743 185.39697266 25.41552734 C183.13855809 25.39592469 180.88018266 25.37128336 178.62187195 25.34207153 C172.56108064 25.27953322 166.50270264 25.29159308 160.44175005 25.32223082 C155.35036509 25.34070402 150.2594038 25.32102441 145.16804445 25.30155337 C132.45727821 25.25335227 119.74815641 25.27668168 107.03757422 25.33511896 C96.74795799 25.3805246 86.46033332 25.35719276 76.17089844 25.28466797 C64.14736794 25.1999265 52.1254129 25.16389934 40.10147321 25.19471705 C33.76401422 25.21067949 27.42817793 25.20780266 21.09090042 25.15299606 C-15.43590509 24.06500776 -15.43590509 24.06500776 -47.31276894 39.74323463 C-49 41 -49 41 -51 41 C-51 34.07 -51 27.14 -51 20 C-45.96871707 17.48435853 -41.22370894 15.18985908 -36.04296875 13.125 C-35.41449539 12.87379395 -34.78602203 12.62258789 -34.13850403 12.36376953 C-32.820774 11.83787459 -31.50238188 11.31363576 -30.18334961 10.79101562 C-28.20071822 10.00523878 -26.2203319 9.21401229 -24.24023438 8.421875 C-3.13046961 0 -3.13046961 0 0 0 Z " fill="#373B37" transform="translate(241,337)"/>
<path d="M0 0 C0.23248586 4.56164082 0.37448143 9.12176219 0.5 13.6875 C0.60054687 15.62786133 0.60054687 15.62786133 0.703125 17.60742188 C0.8940679 26.84428482 0.8940679 26.84428482 -1.36816406 29.76855469 C-3.50658417 31.13933681 -5.64603004 32.04426124 -8 33 C-10.02429887 34.08554049 -12.03930084 35.18851991 -14.046875 36.3046875 C-16.27979924 37.49751142 -18.51420906 38.68755804 -20.75 39.875 C-28.49113989 43.98974141 -36.13627549 48.19201607 -43.64550781 52.71923828 C-46 54 -46 54 -48 54 C-48 42.12 -48 30.24 -48 18 C-40.7734375 15.109375 -33.546875 12.21875 -26.3203125 9.328125 C-25.54137634 9.01645386 -24.76244019 8.70478271 -23.9598999 8.38366699 C-22.41577649 7.76621202 -20.87138584 7.14942493 -19.32672119 6.5333252 C-16.12483717 5.25551351 -12.92772049 3.97015248 -9.74121094 2.65429688 C-8.8546582 2.28884766 -7.96810547 1.92339844 -7.0546875 1.546875 C-6.32491699 1.24104492 -5.59514648 0.93521484 -4.84326172 0.62011719 C-3 0 -3 0 0 0 Z " fill="#F70402" transform="translate(145,375)"/>
<path d="M0 0 C0 11.88 0 23.76 0 36 C-16.49420103 45.42525773 -16.49420103 45.42525773 -24.8125 50 C-26.13604492 50.73283203 -26.13604492 50.73283203 -27.48632812 51.48046875 C-28.32228516 51.94066406 -29.15824219 52.40085937 -30.01953125 52.875 C-30.76307861 53.28492188 -31.50662598 53.69484375 -32.27270508 54.1171875 C-34 55 -34 55 -35 55 C-35 41.47 -35 27.94 -35 14 C-22.61337539 8.36971609 -22.61337539 8.36971609 -17.9296875 6.54296875 C-16.93195313 6.15302734 -15.93421875 5.76308594 -14.90625 5.36132812 C-13.9059375 4.97396484 -12.905625 4.58660156 -11.875 4.1875 C-10.83601563 3.78080078 -9.79703125 3.37410156 -8.7265625 2.95507812 C-1.13772321 0 -1.13772321 0 0 0 Z " fill="#F9FBF9" transform="translate(96,394)"/>
<path d="M0 0 C4.08692084 0.67566607 7.69581938 1.94486672 11.54296875 3.46875 C12.15263992 3.70911987 12.7623111 3.94948975 13.39045715 4.19714355 C15.3243789 4.96085136 17.25589921 5.73044369 19.1875 6.5 C20.49660081 7.0172916 21.80584427 7.53422236 23.11523438 8.05078125 C32.62179453 11.81089726 32.62179453 11.81089726 35 13 C35 26.53 35 40.06 35 54 C16.4893617 44.74468085 16.4893617 44.74468085 9.0625 40.5625 C8.28455078 40.13001953 7.50660156 39.69753906 6.70507812 39.25195312 C1.14174107 36.14174107 1.14174107 36.14174107 0 35 C-0.08851529 32.40640678 -0.11525945 29.83960309 -0.09765625 27.24609375 C-0.09553383 26.08292381 -0.09553383 26.08292381 -0.09336853 24.89625549 C-0.08775345 22.40996506 -0.07519846 19.9237634 -0.0625 17.4375 C-0.05748694 15.75586067 -0.0529237 14.07421994 -0.04882812 12.39257812 C-0.03777913 8.26168434 -0.02050445 4.13085724 0 0 Z " fill="#F9FBF9" transform="translate(572,395)"/>
<path d="M0 0 C39.6 0 79.2 0 120 0 C120 3.3 120 6.6 120 10 C80.4 10 40.8 10 0 10 C0 6.7 0 3.4 0 0 Z " fill="#F7F7F9" transform="translate(274,423)"/>
<path d="M0 0 C11.88 0 23.76 0 36 0 C36 9.9 36 19.8 36 30 C24.12 30 12.24 30 0 30 C0 20.1 0 10.2 0 0 Z " fill="#111111" transform="translate(382,537)"/>
<path d="M0 0 C11.88 0 23.76 0 36 0 C36 9.9 36 19.8 36 30 C24.12 30 12.24 30 0 30 C0 20.1 0 10.2 0 0 Z " fill="#111111" transform="translate(250,537)"/>
<path d="M0 0 C7.92 0 15.84 0 24 0 C24 13.86 24 27.72 24 42 C16.08 42 8.16 42 0 42 C0 28.14 0 14.28 0 0 Z " fill="#111111" transform="translate(382,435)"/>
<path d="M0 0 C7.92 0 15.84 0 24 0 C24 13.86 24 27.72 24 42 C16.08 42 8.16 42 0 42 C0 28.14 0 14.28 0 0 Z " fill="#111111" transform="translate(262,435)"/>
<path d="M0 0 C1.31453266 0.41020877 2.62648553 0.82868253 3.9375 1.25 C4.66839844 1.48203125 5.39929688 1.7140625 6.15234375 1.953125 C10.18131447 3.43428296 14.0773705 5.25660911 18 7 C18 23.83 18 40.66 18 58 C4 51 4 51 0 48 C-0.48101807 45.81697083 -0.48101807 45.81697083 -0.45410156 43.25317383 C-0.45379944 42.29240433 -0.45349731 41.33163483 -0.45318604 40.3417511 C-0.43254089 39.30729355 -0.41189575 38.272836 -0.390625 37.20703125 C-0.38496521 36.14586594 -0.37930542 35.08470062 -0.37347412 33.99137878 C-0.35106143 30.59796265 -0.30085449 27.20559765 -0.25 23.8125 C-0.2299414 21.51368711 -0.21168952 19.21485769 -0.1953125 16.91601562 C-0.1511807 11.27698436 -0.08421972 5.63856727 0 0 Z " fill="#FDFEFD" transform="translate(656,428)"/>
<path d="M0 0 C0.4598754 5.84254007 0.72232935 11.66222524 0.5859375 17.5234375 C0.5657959 18.48169434 0.5456543 19.43995117 0.52490234 20.42724609 C-0.12842142 23.62944417 -1.21952479 24.73965409 -3.75 26.75 C-5.8286213 27.51296216 -7.91311587 28.25993757 -10 29 C-13.55240423 30.86566152 -17.0180611 32.88159929 -20.5 34.875 C-22.25633868 35.85887783 -24.01652276 36.83593628 -25.78125 37.8046875 C-26.9269043 38.43866455 -26.9269043 38.43866455 -28.09570312 39.08544922 C-30 40 -30 40 -32 40 C-32 30.76 -32 21.52 -32 12 C-28.04 10.35 -24.08 8.7 -20 7 C-18.42089844 6.33355469 -16.84179688 5.66710937 -15.21484375 4.98046875 C-13.78912278 4.38266871 -12.36334309 3.78500871 -10.9375 3.1875 C-10.20595703 2.87619141 -9.47441406 2.56488281 -8.72070312 2.24414062 C-3.3396978 0 -3.3396978 0 0 0 Z " fill="#F90201" transform="translate(178,362)"/>
<path d="M0 0 C7.44129425 2.05590521 14.5083612 4.70931191 21.625 7.6875 C26.760625 9.8221875 26.760625 9.8221875 32 12 C32 21.24 32 30.48 32 40 C27.60183143 38.53394381 24.40547114 37.26826165 20.48828125 35.03125 C19.48345703 34.46019531 18.47863281 33.88914062 17.44335938 33.30078125 C16.41017578 32.70652344 15.37699219 32.11226563 14.3125 31.5 C13.26771484 30.90574219 12.22292969 30.31148438 11.14648438 29.69921875 C3.53639439 25.35759626 3.53639439 25.35759626 0 23 C-0.34057617 20.66162109 -0.34057617 20.66162109 -0.29296875 17.7734375 C-0.28330078 16.7421875 -0.27363281 15.7109375 -0.26367188 14.6484375 C-0.23853516 13.56820313 -0.21339844 12.48796875 -0.1875 11.375 C-0.17396484 10.28703125 -0.16042969 9.1990625 -0.14648438 8.078125 C-0.11104754 5.38492591 -0.06164331 2.69270626 0 0 Z " fill="#F90201" transform="translate(490,362)"/>
<path d="M0 0 C0.99 0 1.98 0 3 0 C3.33 3.96 3.66 7.92 4 12 C4.99 12 5.98 12 7 12 C64 12 121 12 178 12 C178.33 8.04 178.66 4.08 179 0 C180.65 0.33 182.3 0.66 184 1 C184 5.95 184 10.9 184 16 C122.62 16 61.24 16 -2 16 C-2 2 -2 2 0 0 Z " fill="#334434" transform="translate(243,335)"/>
<path d="M0 0 C11.88 0 23.76 0 36 0 C36 5.94 36 11.88 36 18 C24.12 18 12.24 18 0 18 C0 12.06 0 6.12 0 0 Z " fill="#111111" transform="translate(382,507)"/>
<path d="M0 0 C11.88 0 23.76 0 36 0 C36 5.94 36 11.88 36 18 C24.12 18 12.24 18 0 18 C0 12.06 0 6.12 0 0 Z " fill="#111111" transform="translate(250,507)"/>
<path d="M0 0 C0.23248586 4.56164082 0.37448143 9.12176219 0.5 13.6875 C0.60054687 15.62786133 0.60054687 15.62786133 0.703125 17.60742188 C0.89616589 26.94577512 0.89616589 26.94577512 -1.60986328 29.89379883 C-3.69199656 31.20509241 -5.7061397 32.11893718 -8 33 C-9.02867187 33.59425781 -10.05734375 34.18851562 -11.1171875 34.80078125 C-12.02726563 35.29964844 -12.93734375 35.79851562 -13.875 36.3125 C-14.80054688 36.82425781 -15.72609375 37.33601563 -16.6796875 37.86328125 C-19 39 -19 39 -21 39 C-21 28.77 -21 18.54 -21 8 C-11.82926829 3.41463415 -11.82926829 3.41463415 -7.6875 1.75 C-6.86636719 1.41484375 -6.04523438 1.0796875 -5.19921875 0.734375 C-3 0 -3 0 0 0 Z " fill="#F8FAF8" transform="translate(145,375)"/>
<path d="M0 0 C7.2493104 2.29561496 13.91296433 5.04706847 21 8 C21 18.23 21 28.46 21 39 C14.24672749 36.74890916 14.24672749 36.74890916 11.38671875 35.08984375 C10.77892578 34.73986328 10.17113281 34.38988281 9.54492188 34.02929688 C8.93197266 33.66900391 8.31902344 33.30871094 7.6875 32.9375 C6.73907227 32.39125977 6.73907227 32.39125977 5.77148438 31.83398438 C1.16003667 29.16003667 1.16003667 29.16003667 0 28 C-0.08767112 25.92737924 -0.10695873 23.85179706 -0.09765625 21.77734375 C-0.09443359 20.51728516 -0.09121094 19.25722656 -0.08789062 17.95898438 C-0.07953403 16.61848891 -0.07106907 15.27799412 -0.0625 13.9375 C-0.0574866 12.59310058 -0.05292342 11.2486994 -0.04882812 9.90429688 C-0.03699488 6.60282059 -0.02050971 3.30143197 0 0 Z " fill="#F9FBF9" transform="translate(523,375)"/>
<path d="M0 0 C0.99 0 1.98 0 3 0 C3 0.99 3 1.98 3 3 C3.99 3 4.98 3 6 3 C6 2.01 6 1.02 6 0 C17.74799607 -0.11922865 29.42374642 0.14270507 41.15380859 0.79956055 C43.65824536 0.93935572 46.16302788 1.07075174 48.66796875 1.20117188 C50.29169282 1.28857795 51.91539184 1.37645106 53.5390625 1.46484375 C54.63923203 1.52272316 54.63923203 1.52272316 55.7616272 1.58177185 C60.54379229 1.85399479 65.25245058 2.3618957 70 3 C70.06058594 3.85464844 70.12117188 4.70929688 70.18359375 5.58984375 C70.26738281 6.69457031 70.35117187 7.79929687 70.4375 8.9375 C70.51871094 10.03964844 70.59992188 11.14179688 70.68359375 12.27734375 C70.70418084 14.91109903 70.70418084 14.91109903 72 16 C72.04080783 17.99958364 72.04254356 20.00045254 72 22 C70.02 22.66 68.04 23.32 66 24 C66.01160156 23.36191406 66.02320313 22.72382813 66.03515625 22.06640625 C66.04417969 21.24011719 66.05320312 20.41382813 66.0625 19.5625 C66.07410156 18.73878906 66.08570313 17.91507812 66.09765625 17.06640625 C66.23267348 15.00836062 66.23267348 15.00836062 65 14 C63.5445452 13.72517677 62.07807334 13.50824385 60.609375 13.31640625 C59.68133057 13.19434814 58.75328613 13.07229004 57.79711914 12.9465332 C56.79156982 12.81980225 55.78602051 12.69307129 54.75 12.5625 C53.7283374 12.43125732 52.7066748 12.30001465 51.65405273 12.16479492 C41.45684751 10.8822016 31.2373055 9.89800925 21 9 C21.33 6.36 21.66 3.72 22 1 C21.01 1 20.02 1 19 1 C18.67 3.31 18.34 5.62 18 8 C7.44191344 8.18451025 7.44191344 8.18451025 3 7 C3 6.01 3 5.02 3 4 C2.01 4 1.02 4 0 4 C0 2.68 0 1.36 0 0 Z " fill="#953F37" transform="translate(208,308)"/>
<path d="M0 0 C0.25397215 6.72525156 0.42882941 13.44926505 0.54931641 20.17822266 C0.59954658 22.46580199 0.66774792 24.75306119 0.75439453 27.03955078 C0.87601382 30.33185657 0.93246228 33.61991743 0.9765625 36.9140625 C1.02817535 37.93303619 1.07978821 38.95200989 1.13296509 40.00186157 C1.135311 42.98520858 1.03489521 45.19729247 0 48 C-3.27999371 50.98147672 -7.41472633 54 -12 54 C-12 37.5 -12 21 -12 4 C-3 0 -3 0 0 0 Z " fill="#FDFDFD" transform="translate(12,428)"/>
<path d="M0 0 C7.92 0 15.84 0 24 0 C24 7.92 24 15.84 24 24 C16.08 24 8.16 24 0 24 C0 16.08 0 8.16 0 0 Z " fill="#FFFFFF" transform="translate(322,483)"/>
<path d="M0 0 C1.50858238 15.05229974 1.50858238 15.05229974 -1.6640625 19.1484375 C-4.36339144 20.71025658 -7.11051713 21.82356769 -10 23 C-12.87129838 24.55970043 -15.68029957 26.22425811 -18.5 27.875 C-25.66481775 32 -25.66481775 32 -28 32 C-28 25.07 -28 18.14 -28 11 C-18.98647242 6.49323621 -18.98647242 6.49323621 -15.3515625 5.078125 C-14.57425781 4.77519531 -13.79695312 4.47226562 -12.99609375 4.16015625 C-12.21363281 3.85980469 -11.43117187 3.55945313 -10.625 3.25 C-9.81933594 2.93417969 -9.01367188 2.61835938 -8.18359375 2.29296875 C-2.25760958 0 -2.25760958 0 0 0 Z " fill="#F60401" transform="translate(218,346)"/>
<path d="M0 0 C6.56179463 1.77064299 12.78698073 4.03910433 19.0625 6.625 C20.20609985 7.09498413 20.20609985 7.09498413 21.37280273 7.57446289 C26.86623629 9.86623629 26.86623629 9.86623629 28 11 C28.08685603 12.56172745 28.10702219 14.12729344 28.09765625 15.69140625 C28.09443359 16.63564453 28.09121094 17.57988281 28.08789062 18.55273438 C28.07951172 19.54595703 28.07113281 20.53917969 28.0625 21.5625 C28.05798828 22.55958984 28.05347656 23.55667969 28.04882812 24.58398438 C28.03700007 27.05604849 28.02051849 29.52799518 28 32 C24.35792507 30.60786668 20.93167328 28.99205189 17.48046875 27.1796875 C15.9480957 26.37724609 15.9480957 26.37724609 14.38476562 25.55859375 C13.32966797 25.00300781 12.27457031 24.44742187 11.1875 23.875 C10.11306641 23.31167969 9.03863281 22.74835938 7.93164062 22.16796875 C5.28662651 20.78080579 2.64316142 19.39068992 0 18 C0 12.06 0 6.12 0 0 Z " fill="#F70301" transform="translate(450,346)"/>
<path d="M0 0 C1.63508812 20.7731657 1.63508812 20.7731657 -2.05078125 25.79296875 C-4.70968848 27.32528714 -7.03721942 28.22578434 -10 29 C-11.65 29.66 -13.3 30.32 -15 31 C-15 22.42 -15 13.84 -15 5 C-3 0 -3 0 0 0 Z " fill="#F2F5F1" transform="translate(178,362)"/>
<path d="M0 0 C1.56337173 0.45535099 3.12565849 0.91442776 4.6875 1.375 C5.55761719 1.63023437 6.42773438 1.88546875 7.32421875 2.1484375 C9.92513119 2.97617314 12.46577023 3.98630809 15 5 C15 13.58 15 22.16 15 31 C12.525 30.01 12.525 30.01 10 29 C9.11699219 28.76925781 8.23398437 28.53851563 7.32421875 28.30078125 C3.78505451 26.97425006 2.26905851 26.09024159 0 23 C-1.34389206 15.4640345 -0.59737283 7.58939208 0 0 Z " fill="#F3F5F1" transform="translate(490,362)"/>
<path d="M0 0 C0.19818991 5.0351671 0.34311223 10.06805406 0.43945312 15.10620117 C0.47961717 16.81851754 0.53416398 18.53056064 0.60351562 20.24194336 C1.16632915 34.49022996 1.16632915 34.49022996 -1.74609375 38.26025391 C-4.50010561 40.02508745 -6.71493487 41 -10 41 C-10.14867251 36.1071496 -10.25736293 31.21562188 -10.32958984 26.32104492 C-10.35970545 24.65740043 -10.4006085 22.99391398 -10.45263672 21.33081055 C-10.52569321 18.93498746 -10.55950481 16.54126747 -10.5859375 14.14453125 C-10.61690521 13.4047554 -10.64787292 12.66497955 -10.67977905 11.90278625 C-10.68164004 9.02683672 -10.57351961 6.71394386 -8.72979736 4.41879272 C-6.23225675 2.25911377 -3.47216128 0 0 0 Z " fill="#FDFDFD" transform="translate(96,394)"/>
<path d="M0 0 C3.69026484 0.63261683 6.42725897 1.57090359 10 3 C10 14.88 10 26.76 10 39 C2.97576155 37.59515231 2.97576155 37.59515231 0 35 C-0.45571003 32.14715721 -0.58612807 29.89483029 -0.48828125 27.05078125 C-0.48120651 26.27816452 -0.47413177 25.50554779 -0.46684265 24.70951843 C-0.43886255 22.24285858 -0.37612407 19.77847296 -0.3125 17.3125 C-0.2874215 15.64000676 -0.26460754 13.96747791 -0.24414062 12.29492188 C-0.18902491 8.19573891 -0.10273296 4.09825493 0 0 Z " fill="#FEFEFE" transform="translate(572,395)"/>
<path d="M0 0 C0.66 0.33 1.32 0.66 2 1 C4.14950079 1.08797289 6.30184193 1.10866949 8.453125 1.10006714 C9.12312531 1.09880487 9.79312561 1.09754259 10.48342896 1.09624207 C12.73899345 1.09084438 14.99446393 1.07831726 17.25 1.06591797 C18.86279152 1.06072724 20.47558466 1.05601862 22.08837891 1.05175781 C25.56642108 1.04180262 29.04443655 1.02894788 32.52246094 1.01403427 C38.01756773 0.99102419 43.51267078 0.97768374 49.0078125 0.96633911 C64.63546362 0.93285882 80.2630614 0.89119817 95.890625 0.82861328 C104.51766235 0.7941451 113.14466021 0.77030059 121.77175903 0.75840485 C126.34042956 0.75161762 130.90893272 0.73909645 135.47753906 0.71337509 C139.77191269 0.6891989 144.06609509 0.67872952 148.36053467 0.67897034 C149.94001939 0.67653952 151.51950555 0.66892083 153.09893799 0.65584183 C155.24849618 0.63877845 157.39727589 0.64000539 159.546875 0.64596558 C160.75182617 0.64190138 161.95677734 0.63783718 163.19824219 0.63364983 C164.12282227 0.75454538 165.04740234 0.87544094 166 1 C166.99 2.485 166.99 2.485 168 4 C111.57 4 55.14 4 -3 4 C-2.67 3.01 -2.34 2.02 -2 1 C-1.34 0.67 -0.68 0.34 0 0 Z " fill="#313F31" transform="translate(252,344)"/>
<path d="M0 0 C8.34802826 0.10957342 16.69600209 0.22253246 25.04393196 0.33933926 C28.92396325 0.39353356 32.80400178 0.44673652 36.68408203 0.49731445 C57.13386767 0.76477368 77.56258025 1.22472846 98 2 C98 2.99 98 3.98 98 5 C75.60220286 5.09931488 53.24537755 5.14425719 30.86328125 4.21875 C24.91805767 3.97620383 19.00053769 3.97531809 13.05078125 4.03125 C8.33791157 3.98297477 3.67883776 3.54472955 -1 3 C-0.67 2.01 -0.34 1.02 0 0 Z " fill="#CE7770" transform="translate(3,304)"/>
<path d="M0 0 C0 7.26 0 14.52 0 22 C-3.96 23.98 -7.92 25.96 -12 28 C-12 20.08 -12 12.16 -12 4 C-2 0 -2 0 0 0 Z " fill="#F00702" transform="translate(190,357)"/>
<path d="M0 0 C4 1.33333333 8 2.66666667 12 4 C12 11.92 12 19.84 12 28 C8.04 26.02 4.08 24.04 0 22 C0 14.74 0 7.48 0 0 Z " fill="#F20602" transform="translate(478,357)"/>
<path d="M0 0 C0 4.62 0 9.24 0 14 C-7.92 17.96 -7.92 17.96 -16 22 C-16 16.39 -16 10.78 -16 5 C-12.596875 3.7625 -12.596875 3.7625 -9.125 2.5 C-8.41230957 2.23896484 -7.69961914 1.97792969 -6.96533203 1.70898438 C-2.22222222 0 -2.22222222 0 0 0 Z " fill="#EA0A04" transform="translate(241,337)"/>
<path d="M0 0 C5.83645758 1.65629202 10.51376487 3.25688243 16 6 C16 11.28 16 16.56 16 22 C10.72 19.36 5.44 16.72 0 14 C0 9.38 0 4.76 0 0 Z " fill="#EA0A03" transform="translate(427,337)"/>
<path d="M0 0 C0 6.6 0 13.2 0 20 C-8.75 25 -8.75 25 -11 25 C-11 18.07 -11 11.14 -11 4 C-3 0 -3 0 0 0 Z " fill="#EBEEE7" transform="translate(201,353)"/>
<path d="M0 0 C9.875 2.875 9.875 2.875 11 4 C11.08685603 5.56172745 11.10702219 7.12729344 11.09765625 8.69140625 C11.09443359 9.63564453 11.09121094 10.57988281 11.08789062 11.55273438 C11.07951172 12.54595703 11.07113281 13.53917969 11.0625 14.5625 C11.05798828 15.55958984 11.05347656 16.55667969 11.04882812 17.58398438 C11.03700007 20.05604849 11.02051849 22.52799518 11 25 C7.1670768 23.53447054 3.70751245 21.85375622 0 20 C0 13.4 0 6.8 0 0 Z " fill="#ECEEE8" transform="translate(467,353)"/>
<path d="M0 0 C0.99 0 1.98 0 3 0 C3 0.99 3 1.98 3 3 C3.99 3 4.98 3 6 3 C6 2.01 6 1.02 6 0 C8.87506421 -0.02712325 11.74986908 -0.04689851 14.625 -0.0625 C15.83736328 -0.07506836 15.83736328 -0.07506836 17.07421875 -0.08789062 C21.50341918 -0.1058955 25.63883424 0.10377338 30 1 C30.33 3.64 30.66 6.28 31 9 C27.7 9 24.4 9 21 9 C21.33 6.36 21.66 3.72 22 1 C21.01 1 20.02 1 19 1 C18.67 3.31 18.34 5.62 18 8 C7.44191344 8.18451025 7.44191344 8.18451025 3 7 C3 6.01 3 5.02 3 4 C2.01 4 1.02 4 0 4 C0 2.68 0 1.36 0 0 Z " fill="#919A88" transform="translate(208,308)"/>
<path d="M0 0 C6.93 0.33 13.86 0.66 21 1 C21 2.32 21 3.64 21 5 C20.34 5 19.68 5 19 5 C19 6.65 19 8.3 19 10 C13.06 9.67 7.12 9.34 1 9 C0.67 6.03 0.34 3.06 0 0 Z " fill="#74625B" transform="translate(238,309)"/>
<path d="M0 0 C11.88 0 23.76 0 36 0 C36.495 2.97 36.495 2.97 37 6 C36.34 6 35.68 6 35 6 C35 5.34 35 4.68 35 4 C34.34 4.33 33.68 4.66 33 5 C9.21353559 6.07117853 9.21353559 6.07117853 0 3 C0 2.01 0 1.02 0 0 Z " fill="#9E3C32" transform="translate(148,307)"/>
<path d="M0 0 C4.8929813 -0.02477941 9.7859258 -0.04289763 14.67895508 -0.05493164 C16.34237301 -0.05995023 18.00578656 -0.06676652 19.66918945 -0.07543945 C22.06462693 -0.08761357 24.46000591 -0.09325314 26.85546875 -0.09765625 C27.96513252 -0.10539818 27.96513252 -0.10539818 29.09721375 -0.11329651 C32.86083154 -0.11370241 36.34140381 0.09241691 40 1 C40.495 2.485 40.495 2.485 41 4 C35.48242521 4.02467609 29.96488239 4.04284856 24.44726562 4.05493164 C22.56933025 4.05996763 20.6913988 4.06679671 18.81347656 4.07543945 C16.11782868 4.08753713 13.42223253 4.09323557 10.7265625 4.09765625 C9.88380768 4.10281754 9.04105286 4.10797882 8.17276001 4.11329651 C2.22774341 4.11387171 2.22774341 4.11387171 0 3 C0 2.01 0 1.02 0 0 Z " fill="#D0786F" transform="translate(104,306)"/>
<path d="M0 0 C7 2 7 2 8 3 C8.08631874 4.34267413 8.10706473 5.68974322 8.09765625 7.03515625 C8.09443359 7.84404297 8.09121094 8.65292969 8.08789062 9.48632812 C8.07951172 10.33646484 8.07113281 11.18660156 8.0625 12.0625 C8.05798828 12.91650391 8.05347656 13.77050781 8.04882812 14.65039062 C8.03700373 16.76695663 8.01906769 18.88348685 8 21 C2.25 19.125 2.25 19.125 0 18 C0 12.06 0 6.12 0 0 Z " fill="#F2F6F2" transform="translate(450,346)"/>
<path d="M0 0 C0.16225719 2.75236274 0.2809328 5.49517476 0.375 8.25 C0.45041016 9.41595703 0.45041016 9.41595703 0.52734375 10.60546875 C0.58571174 12.88182055 0.55969289 14.7903908 0 17 C-4.55214724 21 -4.55214724 21 -8 21 C-8 14.73 -8 8.46 -8 2 C-2 0 -2 0 0 0 Z " fill="#F1F5F1" transform="translate(218,346)"/>
<path d="M0 0 C3.63 1.32 7.26 2.64 11 4 C11 8.62 11 13.24 11 18 C7.37 16.02 3.74 14.04 0 12 C0 8.04 0 4.08 0 0 Z " fill="#D62B1E" transform="translate(411,330)"/>
<path d="M0 0 C0 3.63 0 7.26 0 11 C-3.63 12.98 -7.26 14.96 -11 17 C-11 12.38 -11 7.76 -11 3 C-3.375 0 -3.375 0 0 0 Z " fill="#D52B1E" transform="translate(257,331)"/>
<path d="M0 0 C18.315 0.495 18.315 0.495 37 1 C37 1.99 37 2.98 37 4 C22.48 4 7.96 4 -7 4 C-7 3.67 -7 3.34 -7 3 C-4.69 3 -2.38 3 0 3 C0 2.01 0 1.02 0 0 Z " fill="#C4756B" transform="translate(64,305)"/>
<path d="M0 0 C0.14496508 3.77043032 0.23395607 7.54014742 0.3125 11.3125 C0.35439453 12.38435547 0.39628906 13.45621094 0.43945312 14.56054688 C0.45556641 15.58857422 0.47167969 16.61660156 0.48828125 17.67578125 C0.51446533 18.62364502 0.54064941 19.57150879 0.56762695 20.5480957 C0.38031006 21.35722412 0.19299316 22.16635254 0 23 C-1.65 23.99 -3.3 24.98 -5 26 C-5 17.75 -5 9.5 -5 1 C-3 0 -3 0 0 0 Z " fill="#EEEEE8" transform="translate(178,362)"/>
<path d="M0 0 C0 5.61 0 11.22 0 17 C-2.31 17.99 -4.62 18.98 -7 20 C-7 14.06 -7 8.12 -7 2 C-2 0 -2 0 0 0 Z " fill="#F50401" transform="translate(225,343)"/>
<path d="M0 0 C2.475 0.495 2.475 0.495 5 1 C5 9.25 5 17.5 5 26 C3.35 25.01 1.7 24.02 0 23 C-0.56762695 20.5480957 -0.56762695 20.5480957 -0.48828125 17.67578125 C-0.47216797 16.64775391 -0.45605469 15.61972656 -0.43945312 14.56054688 C-0.39755859 13.48869141 -0.35566406 12.41683594 -0.3125 11.3125 C-0.27866211 9.68731445 -0.27866211 9.68731445 -0.24414062 8.02929688 C-0.1851579 5.35148095 -0.10290307 2.67642973 0 0 Z " fill="#EFEEE9" transform="translate(490,362)"/>
<path d="M0 0 C6 2 6 2 7 3 C7.07325168 5.86267567 7.09238205 8.700719 7.0625 11.5625 C7.05798828 12.36880859 7.05347656 13.17511719 7.04882812 14.00585938 C7.03700518 16.00393756 7.01906914 18.00197783 7 20 C4.69 19.01 2.38 18.02 0 17 C0 11.39 0 5.78 0 0 Z " fill="#F60401" transform="translate(443,343)"/>
<path d="M0 0 C0 4.95 0 9.9 0 15 C-1.98 15.99 -3.96 16.98 -6 18 C-6 12.39 -6 6.78 -6 1 C-3 0 -3 0 0 0 Z " fill="#EFEFEA" transform="translate(231,341)"/>
<path d="M0 0 C5 1 5 1 6 2 C6.07319621 4.69654854 6.09242537 7.36691458 6.0625 10.0625 C6.05798828 10.82111328 6.05347656 11.57972656 6.04882812 12.36132812 C6.0370068 14.24091871 6.01907078 16.12046899 6 18 C4.02 17.01 2.04 16.02 0 15 C0 10.05 0 5.1 0 0 Z " fill="#F0F0EB" transform="translate(437,341)"/>
<path d="M0 0 C1.48034764 0.47550561 2.95925021 0.95551216 4.4375 1.4375 C5.26121094 1.70433594 6.08492188 1.97117187 6.93359375 2.24609375 C9 3 9 3 10 4 C10.07179964 5.51928038 10.08392007 7.04167482 10.0625 8.5625 C10.05347656 9.38878906 10.04445313 10.21507812 10.03515625 11.06640625 C10.02355469 11.70449219 10.01195312 12.34257812 10 13 C9.01 13 8.02 13 7 13 C7 12.34 7 11.68 7 11 C5.824375 10.7834375 5.824375 10.7834375 4.625 10.5625 C2 10 2 10 0 9 C0 6.03 0 3.06 0 0 Z " fill="#C79180" transform="translate(388,321)"/>
<path d="M0 0 C0.99 0 1.98 0 3 0 C3 0.99 3 1.98 3 3 C3.99 3 4.98 3 6 3 C6 2.01 6 1.02 6 0 C7.98 0 9.96 0 12 0 C12 1.32 12 2.64 12 4 C12.66 4 13.32 4 14 4 C14 3.01 14 2.02 14 1 C14.99 1 15.98 1 17 1 C17 1.99 17 2.98 17 4 C16.34 4 15.68 4 15 4 C15 5.32 15 6.64 15 8 C10.83861737 8.08159574 7.0527516 7.98248524 3 7 C3 6.01 3 5.02 3 4 C2.01 4 1.02 4 0 4 C0 2.68 0 1.36 0 0 Z " fill="#A6382C" transform="translate(208,308)"/>
<path d="M0 0 C0 3.3 0 6.6 0 10 C-3.96 11.98 -3.96 11.98 -8 14 C-8 10.37 -8 6.74 -8 3 C-2.25 0 -2.25 0 0 0 Z " fill="#D96B5F" transform="translate(268,326)"/>
<path d="M0 0 C5.75 1.875 5.75 1.875 8 3 C8 6.63 8 10.26 8 14 C5.36 12.68 2.72 11.36 0 10 C0 6.7 0 3.4 0 0 Z " fill="#D76B5E" transform="translate(400,326)"/>
<path d="M0 0 C0 6.6 0 13.2 0 20 C-1.32 20.33 -2.64 20.66 -4 21 C-4 14.73 -4 8.46 -4 2 C-4.66 1.67 -5.32 1.34 -6 1 C-3 0 -3 0 0 0 Z " fill="#E3DED5" transform="translate(201,353)"/>
<path d="M0 0 C2.475 0.495 2.475 0.495 5 1 C4.67 7.6 4.34 14.2 4 21 C2.68 20.67 1.36 20.34 0 20 C0 13.4 0 6.8 0 0 Z " fill="#E6DFD7" transform="translate(467,353)"/>
<path d="M0 0 C4.51617599 -0.07654536 8.59085217 -0.10228696 13 1 C13 2.98 13 4.96 13 7 C8.71 6.67 4.42 6.34 0 6 C0 4.02 0 2.04 0 0 Z " fill="#D82216" transform="translate(336,314)"/>
<path d="M0 0 C0 6.27 0 12.54 0 19 C-1.32 19.33 -2.64 19.66 -4 20 C-4.33 13.73 -4.66 7.46 -5 1 C-2 0 -2 0 0 0 Z " fill="#EE0F0A" transform="translate(210,349)"/>
<path d="M0 0 C1.32 0.33 2.64 0.66 4 1 C4 7.27 4 13.54 4 20 C2.68 19.67 1.36 19.34 0 19 C0 12.73 0 6.46 0 0 Z " fill="#EF0F0A" transform="translate(458,349)"/>
<path d="M0 0 C2.475 0.495 2.475 0.495 5 1 C5 5.95 5 10.9 5 16 C2.525 15.01 2.525 15.01 0 14 C0 9.38 0 4.76 0 0 Z " fill="#E3E5DC" transform="translate(427,337)"/>
<path d="M0 0 C0 4.62 0 9.24 0 14 C-1.65 14.66 -3.3 15.32 -5 16 C-5 11.05 -5 6.1 -5 1 C-2 0 -2 0 0 0 Z " fill="#E3E5DC" transform="translate(241,337)"/>
<path d="M0 0 C1.32 0 2.64 0 4 0 C4.06058594 0.85464844 4.12117188 1.70929688 4.18359375 2.58984375 C4.26738281 3.69457031 4.35117187 4.79929687 4.4375 5.9375 C4.51871094 7.03964844 4.59992188 8.14179688 4.68359375 9.27734375 C4.70418084 11.91109903 4.70418084 11.91109903 6 13 C6.04080783 14.99958364 6.04254356 17.00045254 6 19 C4.02 19.66 2.04 20.32 0 21 C0 18.03 0 15.06 0 12 C0.66 11.67 1.32 11.34 2 11 C2.40729228 8.67843403 2.74438677 6.3431213 3 4 C2.01 4 1.02 4 0 4 C0 2.68 0 1.36 0 0 Z " fill="#BE9787" transform="translate(274,311)"/>
<path d="M0 0 C6.625 -0.125 6.625 -0.125 10 1 C10 3.31 10 5.62 10 8 C6.7 7.67 3.4 7.34 0 7 C0 4.69 0 2.38 0 0 Z " fill="#BD2E19" transform="translate(367,317)"/>
<path d="M0 0 C2.475 0.495 2.475 0.495 5 1 C5 5.62 5 10.24 5 15 C2.525 14.01 2.525 14.01 0 13 C0 8.71 0 4.42 0 0 Z " fill="#DD1E13" transform="translate(422,335)"/>
<path d="M0 0 C0.99 0 1.98 0 3 0 C3 4.29 3 8.58 3 13 C1.35 13.66 -0.3 14.32 -2 15 C-2.05386629 12.87527424 -2.09273071 10.75016348 -2.125 8.625 C-2.14820313 7.44164062 -2.17140625 6.25828125 -2.1953125 5.0390625 C-2 2 -2 2 0 0 Z " fill="#DD1E13" transform="translate(243,335)"/>
<path d="M0 0 C0.99 0 1.98 0 3 0 C3 7.26 3 14.52 3 22 C2.01 22 1.02 22 0 22 C0 14.74 0 7.48 0 0 Z " fill="#FD0000" transform="translate(482,359)"/>
<path d="M0 0 C6.76594019 -0.11381955 13.28837062 0.11978631 20 1 C20 1.66 20 2.32 20 3 C20.66 3.33 21.32 3.66 22 4 C14.26291674 4.12152487 6.692641 3.84800767 -1 3 C-0.67 2.01 -0.34 1.02 0 0 Z " fill="#C08D7B" transform="translate(3,304)"/>
<path d="M0 0 C0.33 0 0.66 0 1 0 C1 7.26 1 14.52 1 22 C0.01 22.33 -0.98 22.66 -2 23 C-2.05789006 19.54173658 -2.09355821 16.08359707 -2.125 12.625 C-2.14175781 11.64015625 -2.15851563 10.6553125 -2.17578125 9.640625 C-2.18222656 8.69960938 -2.18867188 7.75859375 -2.1953125 6.7890625 C-2.20578613 5.91975098 -2.21625977 5.05043945 -2.22705078 4.15478516 C-2 2 -2 2 0 0 Z " fill="#FE0000" transform="translate(185,359)"/>
<path d="M0 0 C4.95 0.33 9.9 0.66 15 1 C15 2.32 15 3.64 15 5 C13.06257659 5.02703381 11.12504521 5.04641125 9.1875 5.0625 C8.10855469 5.07410156 7.02960938 5.08570313 5.91796875 5.09765625 C3 5 3 5 0 4 C0 2.68 0 1.36 0 0 Z " fill="#CB8C7D" transform="translate(241,309)"/>
<path d="M0 0 C0.99 0 1.98 0 3 0 C3 6.6 3 13.2 3 20 C2.01 20 1.02 20 0 20 C0 13.4 0 6.8 0 0 Z " fill="#FEFEFE" transform="translate(471,355)"/>
<path d="M0 0 C0.66 0 1.32 0 2 0 C2 6.6 2 13.2 2 20 C1.01 20.33 0.02 20.66 -1 21 C-1.02888146 17.68751813 -1.04675799 14.37506833 -1.0625 11.0625 C-1.07087891 10.11697266 -1.07925781 9.17144531 -1.08789062 8.19726562 C-1.09111328 7.29814453 -1.09433594 6.39902344 -1.09765625 5.47265625 C-1.10289307 4.64000244 -1.10812988 3.80734863 -1.11352539 2.94946289 C-1 1 -1 1 0 0 Z " fill="#FEFEFE" transform="translate(195,355)"/>
<path d="M0 0 C2.475 0.495 2.475 0.495 5 1 C4.01 1.495 4.01 1.495 3 2 C3 7.61 3 13.22 3 19 C2.01 18.67 1.02 18.34 0 18 C0 12.06 0 6.12 0 0 Z " fill="#DDD5CA" transform="translate(450,346)"/>
<path d="M0 0 C8.57142857 -0.14285714 8.57142857 -0.14285714 12 1 C12 2.32 12 3.64 12 5 C8.04 5 4.08 5 0 5 C0 3.35 0 1.7 0 0 Z " fill="#E0796E" transform="translate(282,311)"/>
<path d="M0 0 C6.27 0 12.54 0 19 0 C19 0.99 19 1.98 19 3 C16.20826945 3.02690104 13.41679652 3.04679053 10.625 3.0625 C9.43390625 3.07506836 9.43390625 3.07506836 8.21875 3.08789062 C2.2265625 3.11328125 2.2265625 3.11328125 0 2 C0 1.34 0 0.68 0 0 Z " fill="#D67970" transform="translate(45,305)"/>
<path d="M0 0 C0 5.61 0 11.22 0 17 C-0.99 17.33 -1.98 17.66 -3 18 C-3 12.72 -3 7.44 -3 2 C-3.66 1.67 -4.32 1.34 -5 1 C-2 0 -2 0 0 0 Z " fill="#E1D8CE" transform="translate(218,346)"/>
<path d="M0 0 C1.32 0.33 2.64 0.66 4 1 C4 5.62 4 10.24 4 15 C2.68 14.34 1.36 13.68 0 13 C0 8.71 0 4.42 0 0 Z " fill="#E1EBE2" transform="translate(418,333)"/>
<path d="M0 0 C0 4.29 0 8.58 0 13 C-1.98 13.99 -1.98 13.99 -4 15 C-4 10.38 -4 5.76 -4 1 C-2 0 -2 0 0 0 Z " fill="#DBE0D5" transform="translate(250,333)"/>
<path d="M0 0 C1.98 0.99 1.98 0.99 4 2 C3.67 7.28 3.34 12.56 3 18 C2.01 17.67 1.02 17.34 0 17 C0 11.39 0 5.78 0 0 Z " fill="#D9271B" transform="translate(443,343)"/>
<path d="M0 0 C0 5.61 0 11.22 0 17 C-0.99 17.33 -1.98 17.66 -3 18 C-3.33 12.39 -3.66 6.78 -4 1 C-2 0 -2 0 0 0 Z " fill="#DA271B" transform="translate(225,343)"/>
<path d="M0 0 C1.98 0 3.96 0 6 0 C6.33 2.64 6.66 5.28 7 8 C4.69 8 2.38 8 0 8 C0 5.36 0 2.72 0 0 Z " fill="#9B3229" transform="translate(232,309)"/>
<path d="M0 0 C1.32 0 2.64 0 4 0 C4 3.3 4 6.6 4 10 C1.03 9.505 1.03 9.505 -2 9 C-2 7.35 -2 5.7 -2 4 C-1.34 4 -0.68 4 0 4 C0 2.68 0 1.36 0 0 Z " fill="#6C5147" transform="translate(259,310)"/>
<path d="M0 0 C0.99 0 1.98 0 3 0 C3 1.65 3 3.3 3 5 C3.66 5 4.32 5 5 5 C5 6.98 5 8.96 5 11 C3.35 10.67 1.7 10.34 0 10 C0 6.7 0 3.4 0 0 Z " fill="#933A31" transform="translate(263,310)"/>
<path d="M0 0 C1.32 0 2.64 0 4 0 C4.042721 1.66611905 4.04063832 3.33382885 4 5 C3.67 5.33 3.34 5.66 3 6 C2.95907063 8.33297433 2.95758277 10.66705225 3 13 C2.01 12.67 1.02 12.34 0 12 C0 8.04 0 4.08 0 0 Z " fill="#6C514B" transform="translate(278,311)"/>
<path d="M0 0 C2.97 0 5.94 0 9 0 C9 0.99 9 1.98 9 3 C11.31 3 13.62 3 16 3 C16 3.33 16 3.66 16 4 C13.70839681 4.02692484 11.41670454 4.04636124 9.125 4.0625 C7.84882812 4.07410156 6.57265625 4.08570313 5.2578125 4.09765625 C2 4 2 4 0 3 C0 2.01 0 1.02 0 0 Z " fill="#B76E60" transform="translate(104,306)"/>
<path d="M0 0 C0.99 0 1.98 0 3 0 C3 0.99 3 1.98 3 3 C3.99 2.67 4.98 2.34 6 2 C6.33 1.34 6.66 0.68 7 0 C7.99 0 8.98 0 10 0 C10 0.99 10 1.98 10 3 C9.34 3 8.68 3 8 3 C8 3.99 8 4.98 8 6 C5.69 6 3.38 6 1 6 C0.67 4.02 0.34 2.04 0 0 Z " fill="#AA9D97" transform="translate(195,308)"/>
<path d="M0 0 C4.29 0 8.58 0 13 0 C13 0.99 13 1.98 13 3 C11.39679026 3.19551338 9.79237014 3.38111983 8.1875 3.5625 C7.29417969 3.66691406 6.40085938 3.77132813 5.48046875 3.87890625 C3 4 3 4 0 3 C0 2.01 0 1.02 0 0 Z " fill="#DC9591" transform="translate(148,307)"/>
<path d="M0 0 C0.99 0.33 1.98 0.66 3 1 C3 4.96 3 8.92 3 13 C2.01 12.67 1.02 12.34 0 12 C0 8.04 0 4.08 0 0 Z " fill="#F1F5F1" transform="translate(411,330)"/>
<path d="M0 0 C1.32 0.33 2.64 0.66 4 1 C4 3.97 4 6.94 4 10 C2.68 9.67 1.36 9.34 0 9 C0 6.03 0 3.06 0 0 Z " fill="#BB7B65" transform="translate(388,321)"/>
<path d="M0 0 C1.98 0 3.96 0 6 0 C6 1.98 6 3.96 6 6 C4.02 6 2.04 6 0 6 C0 4.02 0 2.04 0 0 Z " fill="#C4B09E" transform="translate(308,312)"/>
<path d="M0 0 C0.99 0 1.98 0 3 0 C3 0.99 3 1.98 3 3 C3.99 3 4.98 3 6 3 C6 2.01 6 1.02 6 0 C6.99 0 7.98 0 9 0 C9 1.32 9 2.64 9 4 C8.01 4 7.02 4 6 4 C6 4.99 6 5.98 6 7 C5.01 7 4.02 7 3 7 C3 6.01 3 5.02 3 4 C2.01 4 1.02 4 0 4 C0 2.68 0 1.36 0 0 Z " fill="#BEAFAA" transform="translate(208,308)"/>
<path d="M0 0 C3.96 0 7.92 0 12 0 C12 0.99 12 1.98 12 3 C8.04 3 4.08 3 0 3 C0 2.01 0 1.02 0 0 Z " fill="#EBA59F" transform="translate(165,307)"/>
<path d="M0 0 C0.99 0 1.98 0 3 0 C3 3.63 3 7.26 3 11 C2.01 11.33 1.02 11.66 0 12 C0 8.04 0 4.08 0 0 Z " fill="#EDF3ED" transform="translate(254,331)"/>
<path d="M0 0 C0.99 0.33 1.98 0.66 3 1 C3 4.63 3 8.26 3 12 C2.01 11.67 1.02 11.34 0 11 C0 7.37 0 3.74 0 0 Z " fill="#EC0903" transform="translate(408,329)"/>
<path d="M0 0 C0 3.63 0 7.26 0 11 C-0.99 11.33 -1.98 11.66 -3 12 C-3 8.37 -3 4.74 -3 1 C-1 0 -1 0 0 0 Z " fill="#ED0903" transform="translate(260,329)"/>
<path d="M0 0 C0.66 0 1.32 0 2 0 C2 3.63 2 7.26 2 11 C1.01 11.33 0.02 11.66 -1 12 C-1.02687279 10.18757948 -1.04633715 8.37504767 -1.0625 6.5625 C-1.07410156 5.55316406 -1.08570313 4.54382813 -1.09765625 3.50390625 C-1 1 -1 1 0 0 Z " fill="#E1EAE1" transform="translate(261,328)"/>
<path d="M0 0 C0.99 0.33 1.98 0.66 3 1 C3 4.63 3 8.26 3 12 C2.01 11.67 1.02 11.34 0 11 C0 7.37 0 3.74 0 0 Z " fill="#E4ECE4" transform="translate(405,328)"/>
<path d="M0 0 C0.99 0 1.98 0 3 0 C3 1.32 3 2.64 3 4 C2.34 4 1.68 4 1 4 C1 5.65 1 7.3 1 9 C-0.32 9 -1.64 9 -3 9 C-3 7.35 -3 5.7 -3 4 C-2.01 4 -1.02 4 0 4 C0 2.68 0 1.36 0 0 Z " fill="#9E271F" transform="translate(256,310)"/>
<path d="M0 0 C0.99 0 1.98 0 3 0 C3 1.32 3 2.64 3 4 C3.66 4 4.32 4 5 4 C5 5.65 5 7.3 5 9 C3.68 9 2.36 9 1 9 C0.67 6.03 0.34 3.06 0 0 Z " fill="#933527" transform="translate(238,309)"/>
<path d="M0 0 C1.65 0 3.3 0 5 0 C5 1.98 5 3.96 5 6 C3.35 6 1.7 6 0 6 C0 4.02 0 2.04 0 0 Z " fill="#D4C3B7" transform="translate(344,315)"/>
<path d="M0 0 C2.97 0 5.94 0 9 0 C9 0.66 9 1.32 9 2 C9.66 2.33 10.32 2.66 11 3 C7.04 3 3.08 3 -1 3 C-0.67 2.01 -0.34 1.02 0 0 Z " fill="#B76553" transform="translate(14,305)"/>
<path d="M0 0 C0.66 0 1.32 0 2 0 C2 2.97 2 5.94 2 9 C1.01 9.33 0.02 9.66 -1 10 C-1.02689216 8.52093108 -1.04634621 7.04172517 -1.0625 5.5625 C-1.07410156 4.73878906 -1.08570313 3.91507812 -1.09765625 3.06640625 C-1 1 -1 1 0 0 Z " fill="#C7A795" transform="translate(271,324)"/>
<path d="M0 0 C1.32 0 2.64 0 4 0 C4 2.31 4 4.62 4 7 C2.68 7 1.36 7 0 7 C0 4.69 0 2.38 0 0 Z " fill="#CDC7B7" transform="translate(367,317)"/>
<path d="M0 0 C1.32 0 2.64 0 4 0 C4 2.31 4 4.62 4 7 C2.68 7 1.36 7 0 7 C0 4.69 0 2.38 0 0 Z " fill="#C8CFBE" transform="translate(360,316)"/>
<path d="M0 0 C1.32 0 2.64 0 4 0 C4 2.31 4 4.62 4 7 C2.68 7 1.36 7 0 7 C0 4.69 0 2.38 0 0 Z " fill="#69574E" transform="translate(273,315)"/>
<path d="M0 0 C1.65 0 3.3 0 5 0 C5 1.65 5 3.3 5 5 C3.35 5 1.7 5 0 5 C0 3.35 0 1.7 0 0 Z " fill="#E0DED4" transform="translate(327,314)"/>
<path d="M0 0 C1.65 0 3.3 0 5 0 C5 1.65 5 3.3 5 5 C3.35 5 1.7 5 0 5 C0 3.35 0 1.7 0 0 Z " fill="#E1E4DA" transform="translate(299,312)"/>
<path d="M0 0 C1.32 0 2.64 0 4 0 C4 1.98 4 3.96 4 6 C2.68 6 1.36 6 0 6 C0 4.02 0 2.04 0 0 Z " fill="#DEE9DF" transform="translate(336,314)"/>
<path d="M0 0 C0.99 0 1.98 0 3 0 C3.33 2.64 3.66 5.28 4 8 C3.01 8 2.02 8 1 8 C0.67 5.36 0.34 2.72 0 0 Z " fill="#AFB0AB" transform="translate(235,309)"/>
<path d="M0 0 C1.32 0 2.64 0 4 0 C4 1.98 4 3.96 4 6 C2.68 6 1.36 6 0 6 C0 4.02 0 2.04 0 0 Z " fill="#D51408" transform="translate(323,313)"/>
<path d="M0 0 C1.32 0 2.64 0 4 0 C4 0.99 4 1.98 4 3 C4.99 3.33 5.98 3.66 7 4 C3.04 4 -0.92 4 -5 4 C-5 3.67 -5 3.34 -5 3 C-3.35 2.67 -1.7 2.34 0 2 C0 1.34 0 0.68 0 0 Z " fill="#9A3A25" transform="translate(144,307)"/>
<path d="M0 0 C0.99 0 1.98 0 3 0 C3 2.64 3 5.28 3 8 C2.01 7.67 1.02 7.34 0 7 C0 4.69 0 2.38 0 0 Z " fill="#D3C1B3" transform="translate(379,319)"/>
<path d="M0 0 C0.99 0 1.98 0 3 0 C3.33 1.98 3.66 3.96 4 6 C3.34 6 2.68 6 2 6 C2 5.34 2 4.68 2 4 C0.68 4.33 -0.64 4.66 -2 5 C-1.34 3.35 -0.68 1.7 0 0 Z " fill="#ABA399" transform="translate(181,307)"/>
<path d="M0 0 C1.32 0 2.64 0 4 0 C4.33 1.32 4.66 2.64 5 4 C3.68 4 2.36 4 1 4 C1 4.66 1 5.32 1 6 C0.34 6 -0.32 6 -1 6 C-0.67 4.02 -0.34 2.04 0 0 Z " fill="#B9A79C" transform="translate(188,307)"/>
<path d="M0 0 C0.99 0 1.98 0 3 0 C3 2.31 3 4.62 3 7 C2.01 7 1.02 7 0 7 C0 4.69 0 2.38 0 0 Z " fill="#C7C5B3" transform="translate(374,318)"/>
<path d="M0 0 C0.99 0 1.98 0 3 0 C2.67 2.31 2.34 4.62 2 7 C1.01 7 0.02 7 -1 7 C-0.67 4.69 -0.34 2.38 0 0 Z " fill="#A42C24" transform="translate(227,309)"/>
<path d="M0 0 C2.97 0 5.94 0 9 0 C9 0.66 9 1.32 9 2 C2.25 3.125 2.25 3.125 0 2 C0 1.34 0 0.68 0 0 Z " fill="#DD968F" transform="translate(23,305)"/>
<path d="M0 0 C1.32 0 2.64 0 4 0 C4 1.65 4 3.3 4 5 C2.68 5 1.36 5 0 5 C0 3.35 0 1.7 0 0 Z " fill="#F00702" transform="translate(332,314)"/>
<path d="M0 0 C1.32 0 2.64 0 4 0 C4 1.65 4 3.3 4 5 C2.68 5 1.36 5 0 5 C0 3.35 0 1.7 0 0 Z " fill="#D0D8C8" transform="translate(282,311)"/>
<path d="M0 0 C1.32 0 2.64 0 4 0 C4 1.65 4 3.3 4 5 C2.68 5 1.36 5 0 5 C0 3.35 0 1.7 0 0 Z " fill="#ECF3ED" transform="translate(318,313)"/>
<path d="M0 0 C1.32 0 2.64 0 4 0 C4 1.65 4 3.3 4 5 C2.68 5 1.36 5 0 5 C0 3.35 0 1.7 0 0 Z " fill="#E30F06" transform="translate(314,313)"/>
<path d="M0 0 C1.32 0 2.64 0 4 0 C4 1.65 4 3.3 4 5 C2.68 5 1.36 5 0 5 C0 3.35 0 1.7 0 0 Z " fill="#DD1106" transform="translate(304,312)"/>
<path d="M0 0 C1.32 0 2.64 0 4 0 C4 1.65 4 3.3 4 5 C2.68 5 1.36 5 0 5 C0 3.35 0 1.7 0 0 Z " fill="#DB1308" transform="translate(295,312)"/>
<path d="M0 0 C1.32 0 2.64 0 4 0 C4 1.65 4 3.3 4 5 C2.68 5 1.36 5 0 5 C0 3.35 0 1.7 0 0 Z " fill="#D12618" transform="translate(278,311)"/>
<path d="M0 0 C1.32 0 2.64 0 4 0 C4 1.65 4 3.3 4 5 C2.68 5 1.36 5 0 5 C0 3.35 0 1.7 0 0 Z " fill="#C1B1A0" transform="translate(259,310)"/>
<path d="M0 0 C1.32 0 2.64 0 4 0 C4 1.65 4 3.3 4 5 C2.68 5 1.36 5 0 5 C0 3.35 0 1.7 0 0 Z " fill="#BFC5B0" transform="translate(266,310)"/>
<path d="M0 0 C0.99 0 1.98 0 3 0 C3 1.98 3 3.96 3 6 C2.01 6 1.02 6 0 6 C0 4.02 0 2.04 0 0 Z " fill="#F70401" transform="translate(364,317)"/>
<path d="M0 0 C0.99 0 1.98 0 3 0 C3 1.98 3 3.96 3 6 C2.01 6 1.02 6 0 6 C0 4.02 0 2.04 0 0 Z " fill="#E60D05" transform="translate(357,316)"/>
<path d="M0 0 C0.99 0 1.98 0 3 0 C3 1.98 3 3.96 3 6 C2.01 6 1.02 6 0 6 C0 4.02 0 2.04 0 0 Z " fill="#DFE8DF" transform="translate(353,316)"/>
<path d="M0 0 C0.99 0 1.98 0 3 0 C3 1.98 3 3.96 3 6 C2.01 6 1.02 6 0 6 C0 4.02 0 2.04 0 0 Z " fill="#E70C04" transform="translate(349,315)"/>
<path d="M0 0 C0.99 0 1.98 0 3 0 C3 0.99 3 1.98 3 3 C2.34 3 1.68 3 1 3 C1 3.99 1 4.98 1 6 C0.01 6 -0.98 6 -2 6 C-2 5.01 -2 4.02 -2 3 C-1.34 3 -0.68 3 0 3 C0 2.01 0 1.02 0 0 Z " fill="#B21D19" transform="translate(205,308)"/>
<path d="M0 0 C1.65 0 3.3 0 5 0 C5 1.32 5 2.64 5 4 C3.35 3.67 1.7 3.34 0 3 C0 2.01 0 1.02 0 0 Z " fill="#68574C" transform="translate(214,312)"/>
<path d="M0 0 C1.65 0.33 3.3 0.66 5 1 C5 1.99 5 2.98 5 4 C3.02 4 1.04 4 -1 4 C-0.67 2.68 -0.34 1.36 0 0 Z " fill="#715348" transform="translate(206,311)"/>
<path d="M0 0 C1.32 0 2.64 0 4 0 C3.67 1.98 3.34 3.96 3 6 C2.34 6 1.68 6 1 6 C0.67 4.02 0.34 2.04 0 0 Z " fill="#B32B1C" transform="translate(184,307)"/>
<path d="M0 0 C1.32 0 2.64 0 4 0 C4.33 0.99 4.66 1.98 5 3 C1.7 3 -1.6 3 -5 3 C-5 2.67 -5 2.34 -5 2 C-3.35 2 -1.7 2 0 2 C0 1.34 0 0.68 0 0 Z " fill="#BDA3A0" transform="translate(140,307)"/>
<path d="M0 0 C0.99 0 1.98 0 3 0 C3.33 1.98 3.66 3.96 4 6 C3.01 6 2.02 6 1 6 C0.67 4.02 0.34 2.04 0 0 Z " fill="#9E2E22" transform="translate(192,308)"/>
</svg>
